<?xml version="1.0" encoding="utf-8"?>
<!-- Generator: Adobe Illustrator 23.0.2, SVG Export Plug-In . SVG Version: 6.00 Build 0)  -->
<svg version="1.1" id="Capa_1" xmlns="http://www.w3.org/2000/svg" xmlns:xlink="http://www.w3.org/1999/xlink" x="0px" y="0px"
	 viewBox="0 0 112.2 112.2" style="enable-background:new 0 0 112.2 112.2;" xml:space="preserve">
<style type="text/css">
	.st0{fill:#FFFFFF;}
</style>
<g>
	<path class="st0" d="M109.3,11.1l-35-10c0,0,0,0,0,0c-0.1,0-0.2,0-0.3-0.1c0,0-0.1,0-0.1,0c-0.1,0-0.2,0-0.3,0c0,0,0,0,0,0
		c-0.1,0-0.2,0-0.3,0c0,0-0.1,0-0.1,0c-0.1,0-0.2,0-0.3,0.1c0,0,0,0,0,0L38.6,11L4.3,1.2C3.5,1,2.7,1.1,2.1,1.6s-1,1.2-1,2v95.1
		c0,1.1,0.7,2.1,1.8,2.4l35,10c0,0,0,0,0,0c0.1,0,0.2,0,0.3,0.1c0,0,0.1,0,0.1,0c0.1,0,0.2,0,0.3,0s0.2,0,0.3,0c0,0,0.1,0,0.1,0
		c0.1,0,0.2,0,0.3-0.1c0,0,0,0,0,0l34.3-9.8l34.3,9.8c0.2,0.1,0.5,0.1,0.7,0.1c0.5,0,1.1-0.2,1.5-0.5c0.6-0.5,1-1.2,1-2V13.5
		C111.1,12.4,110.4,11.5,109.3,11.1z M41.1,15.4l30-8.5v89.9l-30,8.5V15.4z M6.1,6.9l30,8.5v89.9l-30-8.5V6.9z M106.1,105.3l-30-8.5
		V6.9l30,8.5V105.3z"/>
	<path class="st0" d="M29.3,90.9l-15.1-4.3c-1.3-0.4-2.7,0.4-3.1,1.7c-0.4,1.3,0.4,2.7,1.7,3.1L28,95.7c0.2,0.1,0.5,0.1,0.7,0.1
		c1.1,0,2.1-0.7,2.4-1.8C31.4,92.7,30.6,91.3,29.3,90.9z"/>
	<path class="st0" d="M29.3,78.5l-15.1-4.3c-1.3-0.4-2.7,0.4-3.1,1.7c-0.4,1.3,0.4,2.7,1.7,3.1L28,83.3c0.2,0.1,0.5,0.1,0.7,0.1
		c1.1,0,2.1-0.7,2.4-1.8C31.4,80.3,30.6,78.9,29.3,78.5z"/>
	<path class="st0" d="M29.3,66.1l-15.1-4.3c-1.3-0.4-2.7,0.4-3.1,1.7c-0.4,1.3,0.4,2.7,1.7,3.1L28,70.8c0.2,0.1,0.5,0.1,0.7,0.1
		c1.1,0,2.1-0.7,2.4-1.8C31.4,67.8,30.6,66.4,29.3,66.1z"/>
	<path class="st0" d="M29.3,20.8l-15.1-4.3c-0.8-0.2-1.6-0.1-2.2,0.4c-0.6,0.5-1,1.2-1,2v32.9c0,1.1,0.7,2.1,1.8,2.4L28,58.4
		c0.2,0.1,0.5,0.1,0.7,0.1c0.5,0,1.1-0.2,1.5-0.5c0.6-0.5,1-1.2,1-2V23.2C31.1,22,30.4,21.1,29.3,20.8z M26.2,52.7L16,49.8V22.2
		L26.2,25V52.7z"/>
	<path class="st0" d="M48.5,25.6c0.2,0,0.5,0,0.7-0.1l15.1-4.3c1.3-0.4,2.1-1.8,1.7-3.1c-0.4-1.3-1.8-2.1-3.1-1.7l-15.1,4.3
		c-1.3,0.4-2.1,1.8-1.7,3.1C46.5,24.9,47.5,25.6,48.5,25.6z"/>
	<path class="st0" d="M63,86.7l-15.1,4.3c-1.3,0.4-2.1,1.8-1.7,3.1c0.3,1.1,1.3,1.8,2.4,1.8c0.2,0,0.5,0,0.7-0.1l15.1-4.3
		c1.3-0.4,2.1-1.8,1.7-3.1C65.7,87,64.3,86.3,63,86.7z"/>
	<path class="st0" d="M63,74.2l-15.1,4.3c-1.3,0.4-2.1,1.8-1.7,3.1c0.3,1.1,1.3,1.8,2.4,1.8c0.2,0,0.5,0,0.7-0.1L64.3,79
		c1.3-0.4,2.1-1.8,1.7-3.1S64.3,73.8,63,74.2z"/>
	<path class="st0" d="M63,61.8l-15.1,4.3c-1.3,0.4-2.1,1.8-1.7,3.1c0.3,1.1,1.3,1.8,2.4,1.8c0.2,0,0.5,0,0.7-0.1l15.1-4.3
		c1.3-0.4,2.1-1.8,1.7-3.1C65.7,62.2,64.3,61.4,63,61.8z"/>
	<path class="st0" d="M63,49.3l-15.1,4.3c-1.3,0.4-2.1,1.8-1.7,3.1c0.3,1.1,1.3,1.8,2.4,1.8c0.2,0,0.5,0,0.7-0.1l15.1-4.3
		c1.3-0.4,2.1-1.8,1.7-3.1C65.7,49.7,64.3,48.9,63,49.3z"/>
	<path class="st0" d="M82.9,21.3L98,25.6c0.2,0.1,0.5,0.1,0.7,0.1c1.1,0,2.1-0.7,2.4-1.8c0.4-1.3-0.4-2.7-1.7-3.1l-15.1-4.3
		c-1.3-0.4-2.7,0.4-3.1,1.7C80.8,19.5,81.6,20.9,82.9,21.3z"/>
	<path class="st0" d="M82.9,33.7L98,38c0.2,0.1,0.5,0.1,0.7,0.1c1.1,0,2.1-0.7,2.4-1.8c0.4-1.3-0.4-2.7-1.7-3.1l-15.1-4.3
		c-1.3-0.4-2.7,0.4-3.1,1.7C80.8,31.9,81.6,33.3,82.9,33.7z"/>
	<path class="st0" d="M82.9,46.1L98,50.4c0.2,0.1,0.5,0.1,0.7,0.1c1.1,0,2.1-0.7,2.4-1.8c0.4-1.3-0.4-2.7-1.7-3.1l-15.1-4.3
		c-1.3-0.4-2.7,0.4-3.1,1.7C80.8,44.4,81.6,45.8,82.9,46.1z"/>
	<path class="st0" d="M82.9,91.4L98,95.7c0.2,0.1,0.5,0.1,0.7,0.1c0.5,0,1.1-0.2,1.5-0.5c0.6-0.5,1-1.2,1-2V60.5
		c0-1.1-0.7-2.1-1.8-2.4l-15.1-4.3c-0.8-0.2-1.6-0.1-2.2,0.4c-0.6,0.5-1,1.2-1,2V89C81.1,90.2,81.8,91.1,82.9,91.4z M86,59.5
		l10.1,2.9V90L86,87.2V59.5z"/>
</g>
</svg>
