<?xml version="1.0" encoding="utf-8"?>
<!-- Generator: Adobe Illustrator 26.3.1, SVG Export Plug-In . SVG Version: 6.00 Build 0)  -->
<svg version="1.1" id="Capa_1" xmlns="http://www.w3.org/2000/svg" xmlns:xlink="http://www.w3.org/1999/xlink" x="0px" y="0px"
	 viewBox="0 0 112.2 112.2" style="enable-background:new 0 0 112.2 112.2;" xml:space="preserve">
<style type="text/css">
	.st0{fill:#FFFFFF;}
</style>
<g>
	<g>
		<path class="st0" d="M112.2,73.6c-0.1,0.4-0.3,0.8-0.4,1.2c-1,3.2-3.8,5.4-7.1,5.6c-0.6,0-1.2,0-1.8,0c-11.9,0-23.8,0-35.7,0
			c-0.5,0-0.9,0-1.4,0c0,4.2,0,8.2,0,12.4c0.4,0,0.8,0,1.2,0c4.3,0,8.7,0,13,0c3.9,0,6.4,2.5,6.4,6.4c0,1.4,0,2.8,0,4.2
			c0,1-0.5,1.4-1.4,1.5c-0.3,0-0.5,0-0.8,0c-18.7,0-37.5,0-56.2,0c-1.9,0-2.2-0.2-2.2-2.1c0-1.2,0-2.5,0-3.7c0-3.6,2.6-6.1,6.1-6.2
			c4.4,0,8.8,0,13.1,0c0.4,0,0.8,0,1.3,0c0-4.1,0-8.2,0-12.4c-0.5,0-1,0-1.4,0c-12.1,0-24.2,0-36.3,0c-4.2,0-7.3-2.1-8.3-5.7
			C0.1,73.9,0,72.9,0,72c0-18.7,0-37.4,0-56.1c0-5.1,3.4-8.6,8.6-8.6c12.3,0,24.5,0,36.8,0c18.9,0,37.8,0,56.6,0
			c6.1,0,7.9,1.2,10.2,6.7C112.2,33.9,112.2,53.8,112.2,73.6z M109.8,67.3c0-0.5,0-0.8,0-1.2c0-16.7,0-33.4,0-50.2
			c0-3.9-2.3-6.2-6.2-6.2c-31.6,0-63.2,0-94.9,0c-4,0-6.3,2.3-6.3,6.3c0,16.7,0,33.4,0,50.1c0,0.4,0,0.8,0,1.2
			C38.3,67.3,73.9,67.3,109.8,67.3z M109.8,69.9c-35.9,0-71.6,0-107.5,0c0.1,1.5,0.1,2.9,0.4,4.2c0.6,2.5,2.9,4,5.9,4
			c31.7,0,63.3,0,95,0c0.3,0,0.5,0,0.8,0c2.6-0.1,4.8-1.9,5.2-4.5C109.8,72.4,109.8,71.2,109.8,69.9z M28.3,102.4
			c18.6,0,37.1,0,55.6,0c0-0.9,0-1.8,0-2.6c0-3.2-1.3-4.4-4.5-4.4c-12.9,0-25.8,0-38.8,0c-2.9,0-5.8,0-8.7,0c-2.1,0-3.6,1.3-3.8,3.2
			C28.2,99.8,28.3,101.1,28.3,102.4z M63.2,92.9c0-4.1,0-8.2,0-12.3c-4.8,0-9.5,0-14.3,0c0,4.1,0,8.2,0,12.3
			C53.7,92.9,58.4,92.9,63.2,92.9z"/>
	</g>
</g>
</svg>
