<?xml version="1.0" encoding="utf-8"?>
<!-- Generator: Adobe Illustrator 23.0.2, SVG Export Plug-In . SVG Version: 6.00 Build 0)  -->
<svg version="1.1" id="Capa_1" xmlns="http://www.w3.org/2000/svg" xmlns:xlink="http://www.w3.org/1999/xlink" x="0px" y="0px"
	 viewBox="0 0 112.2 112.2" style="enable-background:new 0 0 112.2 112.2;" xml:space="preserve">
<style type="text/css">
	.st0{fill:#FFFFFF;}
</style>
<g>
	<g>
		<g>
			<path class="st0" d="M56.2,24.8c-15.6,0-28.3,12.7-28.3,28.3c0,8.1,3.6,16,9.6,21.3c4.5,4.5,4.1,14,4,14.1c0,0.5,0.1,0.9,0.5,1.3
				c0.3,0.3,0.8,0.5,1.2,0.5h25.9c0.5,0,0.9-0.2,1.2-0.5c0.3-0.3,0.5-0.8,0.5-1.3c0-0.1-0.5-9.7,4-14.1c0.1-0.1,0.2-0.2,0.3-0.3
				c5.9-5.4,9.4-13,9.4-21C84.5,37.5,71.8,24.8,56.2,24.8z M72.5,71.7c-0.1,0.1-0.3,0.3-0.3,0.4c-4,4.3-4.7,11.3-4.8,14.7H44.9
				c-0.1-3.4-0.8-10.7-5.1-15.1C34.4,67,31.3,60.2,31.3,53c0-13.7,11.1-24.8,24.8-24.8S80.9,39.3,80.9,53
				C80.9,60.2,77.9,67,72.5,71.7z"/>
			<path class="st0" d="M56.1,32c-0.9,0-1.7,0.8-1.7,1.7c0,0.9,0.8,1.7,1.7,1.7c10.3,0,18.5,8.3,18.5,18.5c0,0.9,0.8,1.7,1.7,1.7
				c0.9,0,1.7-0.8,1.7-1.7C78.2,41.9,68.3,32,56.1,32z"/>
			<path class="st0" d="M67.4,92.3H44.8c-2.3,0-4.3,1.9-4.3,4.3s1.9,4.3,4.3,4.3h22.5c2.4-0.1,4.4-1.9,4.4-4.3S69.7,92.3,67.4,92.3z
				 M67.4,97.3H44.8c-0.4,0-0.8-0.3-0.8-0.8s0.3-0.8,0.8-0.8h22.5c0.4,0,0.8,0.3,0.8,0.8S67.8,97.3,67.4,97.3z"/>
			<path class="st0" d="M64,102.6H48.1c-2.3,0-4.3,1.9-4.3,4.3s1.9,4.3,4.3,4.3H64c2.3,0,4.3-1.9,4.3-4.3
				C68.3,104.4,66.4,102.6,64,102.6z M64,107.5H48.1c-0.4,0-0.8-0.3-0.8-0.8s0.3-0.8,0.8-0.8H64c0.4,0,0.8,0.3,0.8,0.8
				S64.4,107.5,64,107.5z"/>
			<path class="st0" d="M56.1,16.4c1,0,1.7-0.8,1.7-1.7V2.8c0-0.9-0.8-1.7-1.7-1.7s-1.7,0.8-1.7,1.7v11.8
				C54.4,15.5,55.2,16.4,56.1,16.4z"/>
			<path class="st0" d="M84.9,9.9c-0.8-0.6-1.8-0.3-2.3,0.4L76,20c-0.6,0.8-0.4,1.9,0.4,2.4c0.3,0.2,0.6,0.3,0.9,0.3
				c0.6,0,1.1-0.3,1.4-0.8l6.5-9.8C85.9,11.5,85.7,10.4,84.9,9.9z"/>
			<path class="st0" d="M35.4,22.4c0.3,0,0.6-0.1,0.9-0.3c0.8-0.5,1-1.6,0.5-2.4l-6.3-9.9c-0.5-0.8-1.6-1-2.4-0.5
				c-0.8,0.5-1,1.6-0.5,2.4l6.3,9.9C34.3,22.2,34.8,22.4,35.4,22.4z"/>
			<path class="st0" d="M23.1,33.2l-10.3-5.6c-0.8-0.4-1.9-0.1-2.3,0.7c-0.5,0.8-0.2,1.9,0.7,2.3l10.3,5.6c0.3,0.1,0.5,0.2,0.8,0.2
				c0.6,0,1.2-0.3,1.5-0.9C24.2,34.7,23.9,33.6,23.1,33.2z"/>
			<path class="st0" d="M101.8,28.3c-0.4-0.8-1.5-1.1-2.3-0.7l-10.4,5.6c-0.8,0.4-1.1,1.5-0.7,2.3c0.3,0.6,0.9,0.9,1.5,0.9
				c0.3,0,0.6-0.1,0.8-0.2l10.4-5.6C101.9,30.2,102.2,29.1,101.8,28.3z"/>
		</g>
	</g>
</g>
</svg>
