<?xml version="1.0" encoding="utf-8"?>
<!-- Generator: Adobe Illustrator 23.0.2, SVG Export Plug-In . SVG Version: 6.00 Build 0)  -->
<svg version="1.1" id="Capa_1" xmlns="http://www.w3.org/2000/svg" xmlns:xlink="http://www.w3.org/1999/xlink" x="0px" y="0px"
	 viewBox="0 0 112.2 112.2" style="enable-background:new 0 0 112.2 112.2;" xml:space="preserve">
<style type="text/css">
	.st0{fill:#29557F;}
	.st1{fill:#FFFFFF;}
</style>
<g>
	<g>
		<g>
			<polygon class="st0" points="18.7,55.9 56.8,2.5 62.4,72.7 			"/>
			<path class="st1" d="M56.4,4l5.4,67.9L19.5,55.6L56.4,4 M57.2,1.1l-39.3,55l45,17.3L57.2,1.1L57.2,1.1z"/>
		</g>
		<g>
			<polygon class="st1" points="57.8,2.9 93.6,53.7 63.4,72.5 			"/>
			<path class="st1" d="M58.5,4.8l34.3,48.8l-29,18.2L58.5,4.8 M57.2,1.1l5.8,72.3l31.3-19.6L57.2,1.1L57.2,1.1z"/>
		</g>
	</g>
	<g>
		<g>
			<polygon class="st0" points="19.3,57.2 62.4,73.8 56.9,109.8 			"/>
			<g>
				<path class="st1" d="M20.7,58.3l41.1,15.8l-5.3,34.4L20.7,58.3 M17.9,56.1l39.3,55l5.8-37.7L17.9,56.1L17.9,56.1z"/>
			</g>
		</g>
		<g>
			<polygon class="st1" points="63.4,73.7 92.6,55.5 58,108.8 			"/>
			<g>
				<path class="st1" d="M90.9,57.1l-32,49.4l5-32.5L90.9,57.1 M94.3,53.8L62.9,73.4l-5.8,37.7L94.3,53.8L94.3,53.8z"/>
			</g>
		</g>
	</g>
</g>
</svg>
