<?xml version="1.0" encoding="utf-8"?>
<!-- Generator: Adobe Illustrator 23.0.2, SVG Export Plug-In . SVG Version: 6.00 Build 0)  -->
<svg version="1.1" id="Capa_1" xmlns="http://www.w3.org/2000/svg" xmlns:xlink="http://www.w3.org/1999/xlink" x="0px" y="0px"
	 viewBox="0 0 112.2 112.2" style="enable-background:new 0 0 112.2 112.2;" xml:space="preserve">
<style type="text/css">
	.st0{fill:#FFFFFF;}
</style>
<g>
	<path class="st0" d="M25,109.8c-9.8,0-17.8-7-17.8-15.7s8-15.7,17.8-15.7c5.5,0,10.7,2.2,14.1,6.1l2.2,2.5v-76
		c0-0.4,0.3-0.7,0.7-0.7l62.1-8c0,0,0.1,0,0.1,0c0.2,0,0.4,0.1,0.5,0.2c0.2,0.1,0.3,0.3,0.3,0.6v70.2c0,0.1,0,0.1,0,0.2l0,0.1
		c0,0,0,0.3,0,0.4c0,0.1,0,0.1,0,0.2c0,8.6-8,15.7-17.8,15.7s-17.8-7-17.8-15.7s8-15.7,17.8-15.7c5.5,0,10.7,2.2,14.1,6.1l2.2,2.5
		V24.5l-60.6,7.8v59.2c0,0.1,0,0.1-0.1,0.3l-0.1,0.3l0,0.3c0.1,0.7,0.1,1.2,0.1,1.8C42.8,102.8,34.8,109.8,25,109.8z"/>
	<path class="st0" d="M103.7,3.7v11.5v8l-1.8,0.2l-58.1,7.5l-1.2,0.2v-7.9V11.6L103.7,3.7 M87.2,59.7c5.2,0,10,2.1,13.1,5.7l3.4,3.9
		v3.9c0,0.1,0,0.1,0,0.2l0,0.1l0,0.1c0,0.1,0,0.2,0,0.3c0,0,0,0.1,0,0.1c0,7.9-7.4,14.4-16.5,14.4s-16.5-6.5-16.5-14.4
		S78.1,59.7,87.2,59.7 M25,79.8c5.2,0,10,2.1,13.1,5.7l3.4,3.9v2l-0.2,0.5l0.1,0.6c0.1,0.6,0.1,1.1,0.1,1.6
		c0,7.9-7.4,14.4-16.5,14.4S8.5,102.1,8.5,94.2S15.9,79.8,25,79.8 M104.2,1.1c-0.1,0-0.2,0-0.2,0l-62.1,8c-1,0.1-1.7,1-1.7,2v12.1
		v8.4v52.2c-3.5-4-8.9-6.6-15-6.6c-10.5,0-19,7.6-19,16.9s8.5,16.9,19,16.9c10.5,0,19-7.6,19-16.9c0-0.7-0.1-1.3-0.1-2
		c0.1-0.2,0.1-0.4,0.1-0.7V33.4l58.1-7.5v37.9c-3.5-4-8.9-6.6-15-6.6c-10.5,0-19,7.6-19,16.9s8.5,16.9,19,16.9
		c10.5,0,19-7.6,19-16.9c0-0.2,0-0.4,0-0.5c0-0.1,0-0.1,0-0.2V23.6v-8.4V3.1c0-0.6-0.2-1.1-0.7-1.5C105.2,1.3,104.7,1.1,104.2,1.1
		L104.2,1.1z"/>
</g>
</svg>
