<?xml version="1.0" encoding="utf-8"?>
<!-- Generator: Adobe Illustrator 23.0.2, SVG Export Plug-In . SVG Version: 6.00 Build 0)  -->
<svg version="1.1" id="Capa_1" xmlns="http://www.w3.org/2000/svg" xmlns:xlink="http://www.w3.org/1999/xlink" x="0px" y="0px"
	 viewBox="0 0 112.2 112.2" style="enable-background:new 0 0 112.2 112.2;" xml:space="preserve">
<style type="text/css">
	.st0{fill:#FFFFFF;}
</style>
<g>
	<path class="st0" d="M57.9,85.2v-53c0-1-0.8-1.8-1.8-1.8s-1.8,0.8-1.8,1.8v53c0,1,0.8,1.8,1.8,1.8S57.9,86.2,57.9,85.2z"/>
	<path class="st0" d="M109.3,18.9c-3.8,0-8.4-1.6-13.4-3.3C89.6,13.4,82.5,11,75.2,11c-8.5,0-13.7,3.7-16.6,6.9
		c-1.1,1.2-1.9,2.3-2.5,3.4c-0.6-1-1.5-2.2-2.5-3.4C50.6,14.8,45.5,11,37,11c-7.4,0-14.5,2.5-20.7,4.6c-5,1.7-9.7,3.3-13.4,3.3
		c-1,0-1.8,0.8-1.8,1.8v71.5c0,1,0.8,1.8,1.8,1.8c4.3,0,9.3-1.7,14.5-3.5c6-2.1,12.8-4.4,19.6-4.4c5.8,0,10.5,1.9,14,5.7
		c0.7,0.7,1.8,0.8,2.5,0.1c0.7-0.7,0.8-1.8,0.1-2.5c-2.9-3.1-8.1-6.9-16.6-6.9c-7.4,0-14.5,2.5-20.7,4.6c-4.2,1.5-8.2,2.8-11.6,3.2
		V22.4c3.9-0.4,8.2-1.9,12.8-3.4c6-2.1,12.8-4.4,19.6-4.4c13.7,0,17.3,10.9,17.4,11.3c0.2,0.7,0.9,1.3,1.7,1.3s1.5-0.5,1.7-1.3
		c0-0.1,3.6-11.3,17.4-11.3c6.8,0,13.6,2.4,19.6,4.4c4.5,1.6,8.9,3.1,12.8,3.4v67.9c-3.4-0.4-7.4-1.8-11.6-3.2
		c-6.3-2.2-13.4-4.6-20.7-4.6c-8.5,0-13.7,3.7-16.6,6.9c-0.7,0.7-0.6,1.8,0.1,2.5c0.7,0.7,1.8,0.6,2.5-0.1c3.5-3.8,8.2-5.7,14-5.7
		c6.8,0,13.6,2.4,19.6,4.4c5,1.7,10,3.4,14.3,3.4c1,0,1.8-0.8,1.8-1.8V20.7C111.1,19.7,110.3,18.9,109.3,18.9z"/>
	<path class="st0" d="M109.3,97.5c-3.8,0-8.4-1.6-13.4-3.3c-6.3-2.2-13.4-4.6-20.7-4.6c-8,0-13.1,3.3-16,6.3h-6.2c-3-3-8-6.3-16-6.3
		c-7.4,0-14.5,2.5-20.7,4.6c-4.9,1.7-9.6,3.3-13.4,3.3c-1,0-1.8,0.8-1.8,1.8s0.8,1.8,1.8,1.8c4.3,0,9.3-1.7,14.5-3.5
		c6-2.1,12.8-4.4,19.6-4.4c5.8,0,10.5,1.9,14,5.7c0.3,0.4,0.8,0.6,1.3,0.6h7.7c0.5,0,1-0.2,1.3-0.6c3.5-3.8,8.2-5.7,14-5.7
		c6.8,0,13.6,2.4,19.6,4.4c5.2,1.8,10.2,3.5,14.5,3.5c1,0,1.8-0.8,1.8-1.8S110.3,97.5,109.3,97.5z"/>
</g>
</svg>
