<?xml version="1.0" encoding="utf-8"?>
<!-- Generator: Adobe Illustrator 23.0.2, SVG Export Plug-In . SVG Version: 6.00 Build 0)  -->
<svg version="1.1" id="Capa_1" xmlns="http://www.w3.org/2000/svg" xmlns:xlink="http://www.w3.org/1999/xlink" x="0px" y="0px"
	 viewBox="0 0 112.2 112.2" style="enable-background:new 0 0 112.2 112.2;" xml:space="preserve">
<style type="text/css">
	.st0{fill:#FFFFFF;}
</style>
<g>
	<path class="st0" d="M87,22.2h-6.8V17c0-1-0.8-1.8-1.8-1.8h-4V2.9c0-1-0.8-1.8-1.8-1.8s-1.8,0.8-1.8,1.8v12.3h-3.7
		c-1,0-1.9,0.8-1.9,1.8v5.2h-18V17c0-1-0.9-1.8-1.9-1.8h-4.2V2.9c0-1-0.8-1.8-1.8-1.8s-1.8,0.8-1.8,1.8v12.3h-3.6
		c-1,0-1.8,0.8-1.8,1.8v5.2h-6.8c-1,0-1.7,0.9-1.7,1.9v85.2c0,1,0.7,1.8,1.7,1.8l0,0h61.6c1,0,1.8-0.8,1.7-1.8l0,0V24.1
		C88.8,23.1,88,22.2,87,22.2z M72.3,18.8c0.1,0,0.2,0,0.3,0c0.1,0,0.2,0,0.3,0h3.8v8.8h-7.9v-8.8H72.3z M39.1,18.8
		c0.1,0,0.2,0,0.3,0s0.2,0,0.3,0h4v8.8h-7.9v-3.1c0-0.1,0-0.2,0-0.4c0-0.1,0-0.2,0-0.4v-4.9H39.1z M85.2,107.5h-58V25.8h4.9v3.5
		c0,1,0.8,1.9,1.8,1.9h11.3c1,0,1.8-0.9,1.9-1.9v-3.5h18v3.5c0,1,0.9,1.9,1.9,1.9h11.3c1,0,1.8-0.9,1.8-1.9v-3.5H85v81.7H85.2z"/>
	<path class="st0" d="M80.9,37.9c0-1-0.8-1.8-1.8-1.8h-46c-1,0-1.8,0.8-1.8,1.8v28.3c0,1,0.8,1.8,1.8,1.8h46c1,0,1.8-0.8,1.8-1.8
		V37.9z M77.5,64.6H34.9V39.7h42.7L77.5,64.6L77.5,64.6z"/>
	<path class="st0" d="M33.2,77.7H58c1,0,1.8-0.8,1.8-1.8S59,74.1,58,74.1H33.2c-1,0-1.8,0.8-1.8,1.8C31.4,76.8,32.2,77.7,33.2,77.7
		L33.2,77.7z"/>
	<path class="st0" d="M79.2,83.5h-46c-1,0-1.8,0.8-1.8,1.8s0.8,1.8,1.8,1.8h46c1,0,1.8-0.8,1.8-1.8S80.2,83.5,79.2,83.5z"/>
	<path class="st0" d="M79.2,92.9h-46c-1,0-1.8,0.8-1.8,1.8s0.8,1.8,1.8,1.8h46c1,0,1.8-0.8,1.8-1.8S80.2,92.9,79.2,92.9z"/>
</g>
</svg>
