<?xml version="1.0" encoding="utf-8"?>
<!-- Generator: Adobe Illustrator 23.0.2, SVG Export Plug-In . SVG Version: 6.00 Build 0)  -->
<svg version="1.1" id="Capa_1" xmlns="http://www.w3.org/2000/svg" xmlns:xlink="http://www.w3.org/1999/xlink" x="0px" y="0px"
	 viewBox="0 0 112.2 112.2" style="enable-background:new 0 0 112.2 112.2;" xml:space="preserve">
<style type="text/css">
	.st0{fill:#FFFFFF;}
</style>
<g>
	<path class="st0" d="M84.5,54.5L44.2,27c-0.6-0.4-1.3-0.4-1.9-0.1c-0.6,0.3-1,0.9-1,1.6v55c0,0.7,0.4,1.3,1,1.6
		c0.3,0.1,0.6,0.2,0.9,0.2c0.4,0,0.7-0.1,1-0.3l40.3-27.5c0.5-0.3,0.8-0.9,0.8-1.5S85,54.8,84.5,54.5z M45,80V32l35.2,24L45,80z"/>
	<path class="st0" d="M56,1C25.7,1,1,25.7,1,56s24.7,55,55,55s55-24.7,55-55S86.3,1,56,1z M56,107.3c-28.3,0-51.3-23-51.3-51.3
		S27.7,4.7,56,4.7s51.3,23,51.3,51.3S84.3,107.3,56,107.3z"/>
</g>
</svg>
