<?xml version="1.0" encoding="utf-8"?>
<!-- Generator: Adobe Illustrator 26.3.1, SVG Export Plug-In . SVG Version: 6.00 Build 0)  -->
<svg version="1.1" id="Capa_1" xmlns="http://www.w3.org/2000/svg" xmlns:xlink="http://www.w3.org/1999/xlink" x="0px" y="0px"
	 viewBox="0 0 112.2 112.2" style="enable-background:new 0 0 112.2 112.2;" xml:space="preserve">
<style type="text/css">
	.st0{fill:#FFFFFF;}
</style>
<g>
	<path class="st0" d="M26.9,63c0.5,0,0.9,0,1.4,0c0-3.4,0-6.8,0-10.3c-0.9-0.2-1.8-0.2-2.6-0.5c-4-1.1-6.5-3.8-7.4-7.8
		c-0.9-4.1,0.4-7.6,3.7-10.3c0.2-0.2,0.5-0.4,0.8-0.6c0.8-0.4,1.6-0.3,2.2,0.4c0.6,0.8,0.5,1.6-0.2,2.2c-0.3,0.3-0.6,0.5-0.9,0.8
		c-2.2,1.9-3,4.9-2,7.6c1,2.7,3.5,4.5,6.5,4.6c0-0.4,0-0.8,0-1.2c0-11.5,0-22.9,0-34.4c0-5.7,3.6-9.3,9.3-9.3c12.3,0,24.5,0,36.8,0
		c5.7,0,9.3,3.6,9.3,9.4c0,10.2,0,20.5,0,30.7c0,0.4,0,0.9,0,1.5c0.8,0,1.7,0,2.5,0c1.4,0,1.9,0.4,2.2,1.8c0.2,1.1,0.4,2.1,0.7,3.2
		c0.1,0.3,0.2,0.6,0.4,0.7c1.1,0.5,2.2,1,3.3,1.4c0.2,0.1,0.5-0.1,0.8-0.3c1-0.6,2-1.2,2.9-1.9c0.9-0.6,1.8-0.5,2.5,0.3
		c1.3,1.3,2.6,2.5,3.8,3.8c0.7,0.7,0.8,1.5,0.3,2.4c-0.6,1-1.3,2-1.9,3c-0.2,0.3-0.1,0.8-0.1,1.2c0,0.1,0.1,0.3,0.2,0.4
		c0.4,2.4,2.1,3.1,4.3,3.4c2.2,0.3,2.4,0.7,2.4,2.9c0,1.4,0,2.9,0,4.3c0,1.3-0.4,1.8-1.7,2.1c-1.1,0.3-2.2,0.5-3.3,0.8
		c-0.3,0.1-0.7,0.4-0.9,0.8c-0.2,0.4-0.2,0.9-0.5,1.2c-1,1.4-0.6,2.5,0.3,3.8c2,2.8,1.9,2.9-0.5,5.4c-0.7,0.7-1.4,1.4-2.1,2.1
		c-1.3,1.4-1.8,1.4-3.5,0.3c0,0-0.1,0-0.1-0.1C93,87,93,87,89.8,88.4c-0.3,0.1-0.5,0.5-0.6,0.8c-0.3,1.1-0.5,2.3-0.8,3.4
		c-0.3,1.2-1.1,1.8-2,1.6c-1-0.2-1.6-1.1-1.3-2.3c0.3-1.6,0.6-3.3,1.1-4.8c0.2-0.6,0.8-1.2,1.3-1.5c1.5-0.7,3-1.3,4.5-2
		c0.8-0.4,1.4-0.4,2.1,0.1c0.8,0.5,1.7,1,2.4,1.6c0.6,0.4,1,0.3,1.4-0.2c0.5-0.5,1-0.9,1.5-1.3c-0.8-1.2-1.4-2.2-2.1-3.2
		C97,79.7,97,79,97.5,78.1c0.7-1.4,1.2-2.8,1.8-4.3c0.3-0.9,0.8-1.4,1.7-1.6c1.2-0.2,2.4-0.5,3.6-0.8c0-1,0-1.9,0-3
		c-1.1-0.3-2.3-0.5-3.4-0.7c-1-0.2-1.6-0.8-1.9-1.8c-0.5-1.4-1.1-2.8-1.7-4.1c-0.4-0.9-0.5-1.6,0.1-2.4c0.5-0.8,1-1.6,1.5-2.4
		c0.4-0.6,0.3-1-0.2-1.4c-1.5-1.4-1.4-1.5-3.2-0.3c-0.1,0.1-0.3,0.1-0.4,0.2c-1.4,1.2-2.8,1.3-4.4,0.2c-0.9-0.6-2.1-0.9-3.2-1.2
		c-0.9-0.3-1.5-0.8-1.7-1.8c-0.2-1.2-0.5-2.3-0.8-3.5c-0.5,0-0.9,0-1.4,0c0,3.4,0,6.8,0,10.3c0.6,0.1,1.1,0.1,1.7,0.2
		c4.4,0.9,7.3,3.5,8.3,7.8c1,4.3-0.4,7.9-3.8,10.7c-0.4,0.3-1.1,0.7-1.5,0.6c-0.6-0.1-1.2-0.6-1.5-1.1c-0.4-0.8,0-1.5,0.7-2
		c1.6-1.2,2.6-2.7,2.9-4.6c0.8-4.1-2.7-8.2-6.8-7.9c0,0.4,0,0.8,0,1.3c0,11.4,0,22.9,0,34.3c0,5.8-3.6,9.4-9.4,9.4
		c-12.2,0-24.5,0-36.7,0c-5.7,0-9.3-3.6-9.3-9.3c0-10.3,0-20.6,0-30.8c0-0.4,0-0.9,0-1.4c-0.9,0-1.8,0-2.6,0c-1.1,0-1.8-0.5-2-1.6
		c-0.2-1.1-0.5-2.3-0.8-3.4c-0.1-0.2-0.1-0.6-0.3-0.7c-1.1-0.5-2.3-1-3.5-1.5c-0.2-0.1-0.5,0.1-0.7,0.3c-1,0.6-2,1.2-2.9,1.9
		c-0.9,0.6-1.7,0.6-2.5-0.2c-1.3-1.3-2.6-2.5-3.8-3.8c-0.7-0.7-0.8-1.6-0.2-2.4c0.1-0.2,0.3-0.4,0.4-0.6c0.6-1,1.6-1.9,1.7-3
		c0.1-1-0.7-2.1-1.2-3.2c-0.1-0.3-0.5-0.5-0.8-0.6c-1.1-0.3-2.3-0.6-3.5-0.8c-1.1-0.2-1.6-0.9-1.6-2c0-1.7,0-3.5,0-5.2
		c0-1.1,0.5-1.8,1.6-2c1.1-0.2,2.2-0.5,3.4-0.8c1-0.2,2.4-3.7,1.8-4.5c-0.6-0.9-1.2-1.9-1.8-2.8c-0.6-0.9-0.6-1.8,0.2-2.5
		c1.3-1.3,2.5-2.6,3.8-3.8c0.7-0.7,1.5-0.8,2.4-0.3c1,0.6,2,1.3,3,1.9c0.3,0.2,0.8,0.1,1.2,0.1c0.4-0.1,0.8-0.4,1.2-0.5
		c1.6-0.3,2.3-1.3,2.4-2.9c0.1-0.7,0.3-1.4,0.5-2.1c0.3-1,1.1-1.5,1.9-1.3c0.9,0.2,1.6,1,1.4,2c-0.3,1.8-0.7,3.7-1.2,5.5
		c-0.1,0.5-0.8,1-1.3,1.2c-1.5,0.7-3,1.2-4.5,1.9c-0.8,0.4-1.5,0.4-2.2-0.1c-0.8-0.6-1.7-1.1-2.6-1.6c-0.3-0.1-0.8-0.1-1.1,0.1
		c-0.6,0.4-1.2,1-1.8,1.5c0.8,1.2,1.3,2.2,2,3.1c0.6,0.9,0.6,1.7,0.1,2.7c-0.7,1.3-1.2,2.6-1.6,4c-0.3,0.9-0.8,1.6-1.8,1.7
		c-1.2,0.2-2.3,0.5-3.5,0.8c0,1,0,1.9,0,2.9c1.2,0.3,2.4,0.6,3.6,0.8c0.9,0.2,1.4,0.7,1.7,1.6c0.5,1.4,1.1,2.9,1.8,4.3
		c0.4,0.8,0.4,1.6-0.1,2.3c-0.6,0.8-1.1,1.7-1.6,2.6c-0.1,0.3-0.1,0.8,0.1,1.1c1.5,1.7,1.5,1.7,3.4,0.5c0.3-0.2,0.6-0.3,0.8-0.5
		c1.1-1,2.2-0.9,3.5-0.1c1,0.6,2.2,1.1,3.4,1.4c1.2,0.3,1.8,1,2,2.1C26.4,60.8,26.7,61.9,26.9,63z M80.3,56.1c0-14.2,0-28.5,0-42.7
		c0-3.7-2.1-5.7-5.8-5.7c-12.3,0-24.6,0-36.9,0c-3.7,0-5.8,2.1-5.8,5.8c0,28.4,0,56.9,0,85.3c0,3.8,2.1,5.9,5.9,5.9
		c12.2,0,24.4,0,36.7,0c3.9,0,5.9-2,5.9-6C80.3,84.5,80.3,70.3,80.3,56.1z"/>
	<path class="st0" d="M92.4,18c0.9,0,1.7,0.8,1.7,1.7c0,1-0.8,1.9-1.8,1.9c-1,0-1.7-0.7-1.7-1.7C90.7,18.8,91.4,18,92.4,18z"/>
	<path class="st0" d="M90.7,26.8c0-1.1,0.8-1.9,1.8-1.9c0.9,0,1.7,0.8,1.7,1.7c0,1-0.9,1.9-1.8,1.9C91.4,28.5,90.7,27.8,90.7,26.8z"
		/>
	<path class="st0" d="M90.7,33.7c0-1.1,0.8-1.9,1.8-1.9c0.9,0,1.7,0.8,1.7,1.7c0,1-0.9,1.9-1.8,1.9C91.4,35.5,90.7,34.8,90.7,33.7z"
		/>
	<path class="st0" d="M18,78.4c0-1,0.8-1.8,1.7-1.8c1,0,1.8,0.8,1.7,1.8c0,1-0.9,1.8-1.9,1.8C18.6,80.1,18,79.4,18,78.4z"/>
	<path class="st0" d="M18,85.3c0-1.1,0.8-1.9,1.8-1.8c0.9,0,1.7,0.9,1.6,1.8c0,1-0.9,1.9-1.9,1.8C18.6,87,18,86.3,18,85.3z"/>
	<path class="st0" d="M18,92.2c0-1.1,0.8-1.9,1.8-1.8c0.9,0,1.7,0.8,1.6,1.8c0,1-0.9,1.9-1.9,1.8C18.6,94,18,93.3,18,92.2z"/>
	<path class="st0" d="M42.9,56.2c0.6,0.6,1.2,1.1,1.7,1.6c1.2,1.2,2.5,2.4,3.7,3.7c1,1,1.2,2,0.4,2.8c-0.8,0.8-1.8,0.7-2.8-0.4
		c-2.1-2.1-4.1-4.1-6.2-6.2c-1.2-1.2-1.2-2,0-3.1c2-2,4.1-4.1,6.1-6.1c1.1-1.1,2.1-1.3,2.9-0.5c0.8,0.8,0.7,1.8-0.4,2.9
		C46.5,52.6,44.8,54.3,42.9,56.2z"/>
	<path class="st0" d="M69.3,56.1c-1.8-1.8-3.5-3.5-5.2-5.1c-0.2-0.2-0.5-0.4-0.7-0.7c-0.6-0.8-0.5-1.5,0.1-2.3
		c0.6-0.7,1.6-0.8,2.3-0.1c2.4,2.3,4.8,4.7,7.1,7.1c0.7,0.7,0.7,1.6,0,2.3c-2.3,2.4-4.7,4.7-7,7c-0.7,0.7-1.8,0.6-2.4-0.1
		c-0.7-0.7-0.7-1.7,0.1-2.5C65.5,59.9,67.3,58,69.3,56.1z"/>
	<path class="st0" d="M59.6,49.4c-0.2,0.7-0.4,1.6-0.6,2.5c-0.9,3.7-1.9,7.5-2.8,11.2c-0.3,1.2-1.1,1.9-2.1,1.6
		c-1.1-0.2-1.5-1.2-1.2-2.5c1.1-4.4,2.2-8.9,3.3-13.3c0.3-1.1,1-1.6,1.9-1.5C58.9,47.6,59.5,48.3,59.6,49.4z"/>
	<path class="st0" d="M56.2,14.5c-1.7,0-3.3,0-5,0c-1.3,0-2-0.7-2-1.8c0-1,0.8-1.7,2-1.7c3.3,0,6.6,0,9.8,0c1.3,0,2,0.7,2,1.8
		c0,1-0.8,1.7-2,1.7C59.4,14.5,57.8,14.5,56.2,14.5z"/>
</g>
</svg>
