<?xml version="1.0" encoding="utf-8"?>
<!-- Generator: Adobe Illustrator 23.0.2, SVG Export Plug-In . SVG Version: 6.00 Build 0)  -->
<svg version="1.1" id="Capa_1" xmlns="http://www.w3.org/2000/svg" xmlns:xlink="http://www.w3.org/1999/xlink" x="0px" y="0px"
	 viewBox="0 0 112.2 112.2" style="enable-background:new 0 0 112.2 112.2;" xml:space="preserve">
<style type="text/css">
	.st0{fill:#FFFFFF;}
</style>
<g>
	<path class="st0" d="M110.8,52.3C109,24.9,87.1,2.9,59.7,1.2V1H56h-3.7v0.2C24.9,3,2.9,24.9,1.2,52.3H1V56v3.7h0.2
		c1.8,27.4,23.8,49.4,51.2,51.2v0.2H56h3.7v-0.2c27.4-1.8,49.4-23.8,51.2-51.2h0.2V56v-3.7H110.8z M35.5,13
		c-3.5,4.7-6.5,10.6-8.6,17.3h-11C20.6,22.8,27.4,16.8,35.5,13z M12,37.7h12.9c-1,4.7-1.6,9.5-1.8,14.7H8.5
		C8.9,47.1,10.1,42.2,12,37.7z M8.5,59.7h14.6c0.2,5.1,0.8,10,1.8,14.7H12C10.1,69.8,8.9,64.9,8.5,59.7z M15.8,81.7h11
		c2.1,6.7,5.1,12.6,8.6,17.3C27.4,95.2,20.6,89.2,15.8,81.7z M52.3,103.2c-7.6-2-14.1-10.1-18-21.5h18V103.2z M52.3,74.3h-20
		c-1.1-4.6-1.7-9.5-1.9-14.7h21.9V74.3z M52.3,52.3H30.4c0.2-5.2,0.8-10.1,1.9-14.7h20V52.3z M52.3,30.3h-18
		c4-11.4,10.5-19.5,18-21.5V30.3z M96.2,30.3h-11C83,23.6,80.1,17.7,76.5,13C84.6,16.8,91.4,22.8,96.2,30.3z M59.7,8.8
		c7.6,2,14.1,10.1,18,21.5h-18V8.8z M59.7,37.7h20c1.1,4.6,1.7,9.5,1.9,14.7H59.7V37.7z M59.7,59.7h21.9c-0.2,5.2-0.8,10.1-1.9,14.7
		h-20V59.7z M59.7,103.2V81.7h18C73.7,93,67.2,101.1,59.7,103.2z M76.5,99c3.5-4.7,6.5-10.6,8.6-17.3h11
		C91.4,89.2,84.6,95.2,76.5,99z M100,74.3H87.1c1-4.7,1.6-9.5,1.8-14.7h14.6C103.1,64.9,101.9,69.8,100,74.3z M88.9,52.3
		c-0.2-5.1-0.8-10-1.8-14.7H100c1.9,4.6,3.1,9.5,3.5,14.7H88.9z"/>
</g>
</svg>
