<?xml version="1.0" encoding="utf-8"?>
<!-- Generator: Adobe Illustrator 26.3.1, SVG Export Plug-In . SVG Version: 6.00 Build 0)  -->
<svg version="1.1" id="Capa_1" xmlns="http://www.w3.org/2000/svg" xmlns:xlink="http://www.w3.org/1999/xlink" x="0px" y="0px"
	 viewBox="0 0 40 40" style="enable-background:new 0 0 40 40;" xml:space="preserve">
<style type="text/css">
	.st0{fill:#FFFFFF;}
</style>
<g>
	<g>
		<path class="st0" d="M19.8,21.1C19.9,21.1,19.9,21.1,19.8,21.1H20h0c1.7,0,3.1-0.6,4.1-1.8c2.3-2.5,1.9-6.9,1.8-7.3
			c-0.2-3.1-1.6-4.6-2.8-5.3c-0.9-0.5-2-0.8-3.2-0.8h0c0,0,0,0,0,0h0c-0.6,0-1.9,0.1-3.2,0.8s-2.7,2.2-2.9,5.3
			c0,0.4-0.4,4.8,1.8,7.3C16.8,20.4,18.1,21.1,19.8,21.1z M15.5,12.2L15.5,12.2c0.2-4.2,3.2-4.7,4.4-4.7l0,0h0
			c1.6,0,4.2,0.7,4.4,4.6v0c0,0,0.4,4-1.5,6.1c-0.7,0.8-1.7,1.3-3,1.3c0,0,0,0,0,0l0,0c0,0,0,0,0,0c-1.3,0-2.3-0.4-3-1.3
			C15.1,16.2,15.5,12.2,15.5,12.2z"/>
		<path class="st0" d="M32,28.3L32,28.3c0-0.1,0-0.1,0-0.2c0-1.2-0.1-3.8-2.6-4.7h0c-2.6-0.7-4.8-2.2-4.8-2.2
			c-0.4-0.2-0.8-0.2-1.1,0.2c-0.2,0.4-0.2,0.8,0.2,1.1c0.1,0.1,2.4,1.7,5.3,2.4c1.4,0.5,1.5,1.9,1.5,3.3c0,0,0,0.1,0,0.2
			c0,0.5,0,1.3-0.1,1.8c-0.9,0.5-4.6,2.4-10.3,2.4c-5.6,0-9.3-1.9-10.3-2.4c-0.1-0.5-0.1-1.3-0.1-1.8c0,0,0-0.1,0-0.2
			c0-1.3,0.2-2.8,1.5-3.3c2.9-0.7,5.2-2.4,5.3-2.4c0.4-0.2,0.4-0.7,0.2-1.1c-0.2-0.4-0.7-0.4-1.1-0.2c0,0-2.2,1.5-4.8,2.2
			c0,0,0,0,0,0C8.1,24.3,8,26.9,8,28.1c0,0,0,0.1,0,0.2l0,0c0,0.3,0,1.9,0.3,2.6c0,0.2,0.2,0.3,0.3,0.4c0.2,0.1,4.4,2.8,11.4,2.8
			s11.2-2.7,11.4-2.8c0.1-0.1,0.2-0.2,0.3-0.4C32,30.1,32,28.6,32,28.3z"/>
	</g>
	<path class="st0" d="M20,40C9,40,0,31,0,20S9,0,20,0c11,0,20,9,20,20S31,40,20,40z M20,1.1C9.6,1.1,1.1,9.6,1.1,20
		c0,10.4,8.5,18.9,18.9,18.9S38.9,30.4,38.9,20C38.9,9.6,30.4,1.1,20,1.1z"/>
</g>
</svg>
