<?xml version="1.0" encoding="utf-8"?>
<!-- Generator: Adobe Illustrator 23.0.2, SVG Export Plug-In . SVG Version: 6.00 Build 0)  -->
<svg version="1.1" id="Layer_1" xmlns="http://www.w3.org/2000/svg" xmlns:xlink="http://www.w3.org/1999/xlink" x="0px" y="0px"
	 viewBox="0 0 80 80" style="enable-background:new 0 0 80 80;" xml:space="preserve">
<style type="text/css">
	.st0{fill:#0089C2;}
	.st1{fill:#D291FF;}
	.st2{fill:#1F0040;}
	.st3{enable-background:new    ;}
</style>
<rect class="st0" width="80" height="80"/>
<rect class="st1" width="80" height="80"/>
<rect x="5.7" y="5.7" class="st2" width="68.6" height="68.6"/>
<g class="st3">
	<path class="st1" d="M26,20.2h3.4L44.7,56h-5l-4.6-10.5H20.6L16.3,56h-5L26,20.2z M33.2,40.9L27.7,28l-5.1,12.9H33.2z"/>
	<path class="st1" d="M67,44.7H51.2c0.1,2.2,0.8,4,2.2,5.3c1.3,1.3,3,2,5.1,2c2.9,0,5.6-0.9,8.1-2.8v4.5c-1.4,1-2.7,1.6-4.1,2
		c-1.3,0.4-2.9,0.6-4.7,0.6c-2.5,0-4.5-0.5-6-1.6c-1.5-1.1-2.8-2.5-3.7-4.3s-1.4-3.9-1.4-6.3c0-3.6,1-6.5,2.9-8.7
		c1.9-2.2,4.5-3.3,7.6-3.3c3,0,5.4,1.1,7.1,3.3c1.8,2.2,2.7,5.1,2.7,8.7V44.7z M51.3,41.9h11.3C62.5,40,62,38.6,61,37.6
		s-2.2-1.5-3.8-1.5s-2.9,0.5-3.9,1.5S51.6,40,51.3,41.9z"/>
</g>
</svg>
