<?xml version="1.0" encoding="utf-8"?>
<!-- Generator: Adobe Illustrator 26.3.1, SVG Export Plug-In . SVG Version: 6.00 Build 0)  -->
<svg version="1.1" id="Capa_1" xmlns="http://www.w3.org/2000/svg" xmlns:xlink="http://www.w3.org/1999/xlink" x="0px" y="0px"
	 viewBox="0 0 112.2 112.2" style="enable-background:new 0 0 112.2 112.2;" xml:space="preserve">
<style type="text/css">
	.st0{fill:#EB5569;stroke:#FFFFFF;stroke-width:2;stroke-miterlimit:10;}
	.st1{fill:#7FE781;stroke:#FFFFFF;stroke-width:2;stroke-miterlimit:10;}
	.st2{fill:#5BC880;stroke:#FFFFFF;stroke-width:2;stroke-miterlimit:10;}
	.st3{fill:#FEB54C;stroke:#FFFFFF;stroke-width:2;stroke-miterlimit:10;}
	.st4{fill:#A19CE3;stroke:#FFFFFF;stroke-width:2;stroke-miterlimit:10;}
	.st5{fill:#7984EA;stroke:#FFFFFF;stroke-width:2;stroke-miterlimit:10;}
</style>
<g>
	<g>
		<path class="st0" d="M106.8,82.2c-0.6,0.4-1.2,0.8-1.8,1.3c-5,4.1-9.9,8.3-14.9,12.4c-0.2,0.2-0.4,0.3-0.7,0.5c0-2.9,0-5.7,0-8.6
			c-0.5,0-0.8,0-1.2,0c-12.7,0-15.6,0-28.3,0c-0.5,0-1,0-1.5,0c0.2,0,0.3-0.1,0.5-0.1c5.5-0.5,10.4-2.4,14.9-5.5
			c2.4-1.7,4.5-3.7,6.5-5.9c6.3,0,2.8,0,9.2,0c0-2.8,0-5.6,0-8.6c0.4,0.3,0.6,0.4,0.8,0.6c5.3,4.4,10.6,8.8,15.9,13.3
			c0.2,0.2,0.5,0.3,0.7,0.4C106.8,82,106.8,82.1,106.8,82.2z"/>
		<path class="st1" d="M45.9,25.6c2-1.6,4-3.2,6-4.8c2.1-1.7,4.1-3.4,6.4-5.3c0,3,0,5.9,0,8.5c2.6,0.6,5.1,1,7.5,1.9
			c11.7,4.3,18.7,12.6,21.1,24.8c0.3,1.7,0.3,3.5,0.4,5.3c-3.8,0-7.7,0-11.5,0c-0.1-0.8-0.1-1.5-0.2-2.3
			c-1.3-8.7-6.2-14.4-14.5-17.1c-0.8-0.3-1.7-0.4-2.7-0.6c0,2.9,0,5.5,0,8.4c-1.9-1.5-3.5-3-5.2-4.3c-1.4-1.1-2.8-2.2-4.1-3.3
			c-0.2-0.2-0.4-0.5-0.6-0.7c-1.3-1.1-2.7-2.2-4-3.3c-1.1-0.9-2.2-1.8-3.3-2.8c0.5-0.4,0.8-0.7,1.1-1C43.4,27.8,44.7,26.7,45.9,25.6
			z"/>
		<path class="st2" d="M75.8,55.9c3.8,0,7.7,0,11.5,0c0.1,6.6-1.9,12.5-5.5,18c-0.5,0.8-1.1,1.5-1.6,2.3c-2,2.2-4,4.2-6.5,5.9
			c-4.5,3.1-9.4,5-14.9,5.5c-0.2,0-0.3,0.1-0.5,0.1c-1,0-1.9,0-2.9,0c0-3.8,0-7.7,0-11.5c0.7-0.1,1.3-0.1,2-0.2
			c5.8-0.6,10.5-3.2,14-7.8C74.3,64.6,75.6,60.5,75.8,55.9z"/>
		<path class="st3" d="M55.4,76.3c0,3.8,0,7.7,0,11.5c-1.6,0-3.2,0-4.8,0c-10.6,0-21.2,0-31.7,0c-0.4,0-0.8,0-1.2,0
			c0-3.9,0-7.7,0-11.6c4.4,0,8.7,0,13.1,0c7.5,0,14.9,0,22.4,0C53.9,76.2,54.7,76.2,55.4,76.3z"/>
		<path class="st4" d="M45.9,25.6c-1.3,1.1-2.5,2.2-3.8,3.3c-0.3,0.3-0.7,0.6-1.1,1c1.2,1,2.2,1.9,3.3,2.8c1.3,1.1,2.7,2.2,4,3.3
			c0.2,0.2,0.4,0.5,0.6,0.7c-4.5,1.6-8.1,4.4-10.7,8.5c-2.1,3.3-3.1,6.9-3.1,10.8c-3.8,0-7.7,0-11.5,0c-0.1-5.4,1.2-10.4,3.8-15.1
			c4-7.4,10-12.4,18-15.1C45.6,25.6,45.8,25.6,45.9,25.6z"/>
		<path class="st5" d="M23.6,55.9c3.8,0,7.7,0,11.5,0c0.1,0.7,0.1,1.3,0.2,2c1,8,5.2,13.6,12.6,16.7c1.7,0.7,3.5,1,5.2,1.5
			c-7.5,0-14.9,0-22.4,0c-2.1-2.7-3.9-5.6-5.1-8.8C24.3,63.7,23.5,59.9,23.6,55.9z"/>
	</g>
</g>
</svg>
