<?xml version="1.0" encoding="utf-8"?>
<!-- Generator: Adobe Illustrator 23.0.2, SVG Export Plug-In . SVG Version: 6.00 Build 0)  -->
<svg version="1.1" id="Layer_1" xmlns="http://www.w3.org/2000/svg" xmlns:xlink="http://www.w3.org/1999/xlink" x="0px" y="0px"
	 viewBox="0 0 80 80" style="enable-background:new 0 0 80 80;" xml:space="preserve">
<style type="text/css">
	.st0{fill:#563E7D;}
	.st1{enable-background:new    ;}
	.st2{fill:#FFFFFF;}
</style>
<g>
	<g>
		
			<g id="solid" inkscape:version="0.48.1 r9760" sodipodi:docname="twitter_bootstrap_logo.svg" xmlns:cc="http://creativecommons.org/ns#" xmlns:dc="http://purl.org/dc/elements/1.1/" xmlns:inkscape="http://www.inkscape.org/namespaces/inkscape" xmlns:rdf="http://www.w3.org/1999/02/22-rdf-syntax-ns#" xmlns:sodipodi="http://sodipodi.sourceforge.net/DTD/sodipodi-0.dtd" xmlns:svg="http://www.w3.org/2000/svg">
			<path id="bg" class="st0" d="M80,0v80H0V0H80z"/>
			<g id="B" class="st1">
				<path class="st2" d="M21.7,17.4h22.7c4.2,0,7.5,1,10.1,2.9c2.5,1.9,3.8,4.8,3.8,8.7c0,2.4-0.6,4.4-1.7,6c-1.2,1.7-2.8,3-4.9,3.9
					V39c2.9,0.6,5.1,2,6.5,4.1c1.5,2.1,2.2,4.8,2.2,7.9c0,1.8-0.3,3.5-1,5.1c-0.7,1.6-1.7,3-3.1,4.1c-1.4,1.2-3.2,2.1-5.4,2.7
					c-2.2,0.7-4.8,1-7.8,1H21.7L21.7,17.4L21.7,17.4z M29.9,36.9h13.3c2,0,3.6-0.5,4.9-1.7c1.3-1.1,2-2.7,2-4.8c0-2.4-0.6-4-1.8-5
					c-1.2-1-2.9-1.4-5.1-1.4H29.9L29.9,36.9L29.9,36.9z M29.9,57.4h14.4c2.5,0,4.4-0.6,5.8-1.9c1.4-1.3,2.1-3.1,2.1-5.5
					c0-2.3-0.7-4.1-2.1-5.3c-1.4-1.3-3.3-1.9-5.8-1.9H29.9V57.4z"/>
			</g>
		</g>
	</g>
</g>
</svg>
