<?xml version="1.0" encoding="utf-8"?>
<!-- Generator: Adobe Illustrator 26.3.1, SVG Export Plug-In . SVG Version: 6.00 Build 0)  -->
<svg version="1.1" id="Capa_1" xmlns="http://www.w3.org/2000/svg" xmlns:xlink="http://www.w3.org/1999/xlink" x="0px" y="0px"
	 viewBox="0 0 40 40" style="enable-background:new 0 0 40 40;" xml:space="preserve">
<style type="text/css">
	.st0{fill:#FFFFFF;}
</style>
<g>
	<g>
		<path class="st0" d="M32.2,10.7H7.7c-0.3,0-0.6,0.2-0.6,0.6v17.5c0,0.3,0.2,0.6,0.6,0.6h24.5c0.3,0,0.6-0.2,0.6-0.6V11.2
			C32.8,10.9,32.5,10.7,32.2,10.7z M31.7,26.7l-7.2-7.2l-0.8,0.8l7.8,7.8H8.5l7.8-7.8l-0.8-0.8l-7.2,7.2V11.8h23.4V26.7z"/>
		<path class="st0" d="M30.5,11.8L20,22.3L9.5,11.8H8.3v0.4l11.3,11.3c0.2,0.2,0.6,0.2,0.8,0l11.3-11.3v-0.5L30.5,11.8L30.5,11.8z"
			/>
	</g>
	<path class="st0" d="M20,40C9,40,0,31,0,20S9,0,20,0c11,0,20,9,20,20S31,40,20,40z M20,1.1C9.6,1.1,1.1,9.6,1.1,20
		c0,10.4,8.5,18.9,18.9,18.9S38.9,30.4,38.9,20C38.9,9.6,30.4,1.1,20,1.1z"/>
</g>
</svg>
