<?xml version="1.0" encoding="utf-8"?>
<!-- Generator: Adobe Illustrator 26.3.1, SVG Export Plug-In . SVG Version: 6.00 Build 0)  -->
<svg version="1.1" id="Capa_1" xmlns="http://www.w3.org/2000/svg" xmlns:xlink="http://www.w3.org/1999/xlink" x="0px" y="0px"
	 viewBox="0 0 112.2 112.2" style="enable-background:new 0 0 112.2 112.2;" xml:space="preserve">
<style type="text/css">
	.st0{clip-path:url(#SVGID_00000165954667895792691560000008425570275925820852_);}
	.st1{clip-path:url(#SVGID_00000073691861456743968710000000685636125007290264_);}
	.st2{fill:#FFFFFF;filter:url(#Adobe_OpacityMaskFilter);}
	.st3{fill:#FFFFFF;}
	.st4{mask:url(#mask0_00000120537680850886224310000011724514726395748024_);}
	.st5{fill:#5E438F;}
	.st6{fill:url(#SVGID_00000026858754845526121740000005350255003344699792_);}
	.st7{fill:url(#SVGID_00000164476355749217067610000003814877790517707176_);}
	.st8{fill:url(#SVGID_00000073701322624255967080000004994046453667504777_);}
</style>
<g>
	<defs>
		<rect id="SVGID_1_" x="0" y="0" width="112.2" height="112.2"/>
	</defs>
	<clipPath id="SVGID_00000017480473026559485090000003683225361479191448_">
		<use xlink:href="#SVGID_1_"  style="overflow:visible;"/>
	</clipPath>
	<g style="clip-path:url(#SVGID_00000017480473026559485090000003683225361479191448_);">
		<g>
			<defs>
				<rect id="SVGID_00000150822120274561624740000016102720122408330386_" x="0" y="0" width="112.2" height="112.2"/>
			</defs>
			<clipPath id="SVGID_00000082370238516748181500000000974073743351780260_">
				<use xlink:href="#SVGID_00000150822120274561624740000016102720122408330386_"  style="overflow:visible;"/>
			</clipPath>
			<g style="clip-path:url(#SVGID_00000082370238516748181500000000974073743351780260_);">
				<defs>
					<filter id="Adobe_OpacityMaskFilter" filterUnits="userSpaceOnUse" x="0" y="0" width="112.2" height="112.2">
						<feColorMatrix  type="matrix" values="1 0 0 0 0  0 1 0 0 0  0 0 1 0 0  0 0 0 1 0"/>
					</filter>
				</defs>
				
					<mask maskUnits="userSpaceOnUse" x="0" y="0" width="112.2" height="112.2" id="mask0_00000120537680850886224310000011724514726395748024_">
					<path class="st2" d="M20.6,94.9l-18.7-14c-0.6-0.4-1.1-1-1.4-1.6C0.2,78.6,0,77.9,0,77.1V35.1c0-0.7,0.2-1.4,0.5-2.1
						c0.3-0.6,0.8-1.2,1.4-1.6l18.7-14c-0.6,0.4-1.1,1-1.4,1.6c-0.3,0.6-0.5,1.4-0.5,2.1v70.1c0,0.7,0.2,1.4,0.5,2.1
						C19.5,93.9,20,94.5,20.6,94.9z"/>
					<path class="st3" d="M110.1,19.5c-0.8-0.5-1.7-0.8-2.6-0.8c-0.6,0-1.2,0.1-1.7,0.3c-0.6,0.2-1.1,0.6-1.5,1l-0.3,0.3L84.1,39.4
						L66.7,56.1L46,75.9L26.9,94.2l-0.3,0.3c-0.4,0.4-0.9,0.8-1.5,1c-0.6,0.2-1.1,0.3-1.7,0.3c-1,0-2-0.3-2.8-0.9l-18.7-14
						c1,0.7,2.1,1,3.3,0.9c1.2-0.1,2.3-0.7,3-1.6L29,56.1l17-19.8L75.9,1.6c0.4-0.5,1-0.9,1.6-1.2C78.1,0.1,78.7,0,79.4,0
						c0.9,0,1.8,0.3,2.6,0.8L110.1,19.5z"/>
					<path class="st3" d="M110.1,92.7l-28.1,18.7c-1,0.6-2.1,0.9-3.2,0.7c-1.1-0.2-2.2-0.7-2.9-1.6L46,75.9L29,56.1L8.2,32
						c-0.8-0.9-1.9-1.5-3-1.6c-1.2-0.1-2.4,0.2-3.3,0.9l18.7-14c0.8-0.6,1.8-0.9,2.8-0.9c0.6,0,1.2,0.1,1.7,0.3
						c0.6,0.2,1.1,0.6,1.5,1l0.3,0.3L46,36.3l20.6,19.8l17.5,16.7l19.8,19l0.3,0.3c0.4,0.4,0.9,0.8,1.5,1c0.6,0.2,1.1,0.3,1.7,0.3
						C108.4,93.5,109.3,93.2,110.1,92.7z"/>
					<path class="st3" d="M112.2,23.4v65.5c0,0.8-0.2,1.5-0.6,2.2c-0.4,0.7-0.9,1.3-1.5,1.7l-28.1,18.7c0.6-0.4,1.2-1,1.5-1.7
						c0.4-0.7,0.6-1.4,0.6-2.2l0-34.7l0-33.4l0-34.7c0-0.8-0.2-1.5-0.5-2.2c-0.4-0.7-0.9-1.3-1.5-1.7l28.1,18.7
						c0.6,0.4,1.2,1,1.5,1.7C112,21.8,112.2,22.6,112.2,23.4z"/>
				</mask>
				<g class="st4">
					<path class="st5" d="M20.6,94.9l-18.7-14c-0.6-0.4-1.1-1-1.4-1.6C0.2,78.6,0,77.9,0,77.1V35.1c0-0.7,0.2-1.4,0.5-2.1
						c0.3-0.6,0.8-1.2,1.4-1.6l18.7-14c-0.6,0.4-1.1,1-1.4,1.6c-0.3,0.6-0.5,1.4-0.5,2.1v70.1c0,0.7,0.2,1.4,0.5,2.1
						C19.5,93.9,20,94.5,20.6,94.9z"/>
					<g>
						
							<linearGradient id="SVGID_00000034077676602015292060000013022667724023229336_" gradientUnits="userSpaceOnUse" x1="97.3575" y1="105.845" x2="14.0444" y2="21.9909" gradientTransform="matrix(1 0 0 -1 0 112)">
							<stop  offset="0" style="stop-color:#7252AA"/>
							<stop  offset="1" style="stop-color:#7252AA"/>
						</linearGradient>
						<path style="fill:url(#SVGID_00000034077676602015292060000013022667724023229336_);" d="M110.1,19.5
							c-0.8-0.5-1.7-0.8-2.6-0.8c-0.6,0-1.2,0.1-1.7,0.3c-0.6,0.2-1.1,0.6-1.5,1l-0.3,0.3L84.1,39.4L66.7,56.1L46,75.9L26.9,94.2
							l-0.3,0.3c-0.4,0.4-0.9,0.8-1.5,1c-0.6,0.2-1.1,0.3-1.7,0.3c-1,0-2-0.3-2.8-0.9l-18.7-14c1,0.7,2.1,1,3.3,0.9s2.3-0.7,3-1.6
							L18.7,68L29,56.1l17-19.8L75.9,1.6c0.4-0.5,1-0.9,1.6-1.2C78.1,0.1,78.7,0,79.4,0c0.9,0,1.8,0.3,2.6,0.8L110.1,19.5z"/>
					</g>
					<g>
						
							<linearGradient id="SVGID_00000160154192877698575210000014932339580416277180_" gradientUnits="userSpaceOnUse" x1="15.1561" y1="95.6894" x2="93.462" y2="8.0335" gradientTransform="matrix(1 0 0 -1 0 112)">
							<stop  offset="0" style="stop-color:#AE7FE2"/>
							<stop  offset="1" style="stop-color:#9A70D4"/>
						</linearGradient>
						<path style="fill:url(#SVGID_00000160154192877698575210000014932339580416277180_);" d="M110.1,92.7l-28.1,18.7
							c-1,0.6-2.1,0.9-3.2,0.7c-1.1-0.2-2.2-0.7-2.9-1.6L46,75.9L29,56.1L18.7,44.2L8.2,32c-0.8-0.9-1.9-1.5-3-1.6
							c-1.2-0.1-2.4,0.2-3.3,0.9l18.7-14c0.8-0.6,1.8-0.9,2.8-0.9c0.6,0,1.2,0.1,1.7,0.3c0.6,0.2,1.1,0.6,1.5,1l0.3,0.3L46,36.3
							l20.6,19.8l17.5,16.7l19.8,19l0.3,0.3c0.4,0.4,0.9,0.8,1.5,1c0.6,0.2,1.1,0.3,1.7,0.3C108.4,93.5,109.3,93.2,110.1,92.7z"/>
					</g>
					<g>
						
							<linearGradient id="SVGID_00000025413551327825530300000004961364140126557619_" gradientUnits="userSpaceOnUse" x1="97.0996" y1="113.4847" x2="97.0996" y2="0.6652" gradientTransform="matrix(1 0 0 -1 0 112)">
							<stop  offset="0" style="stop-color:#D59DFF"/>
							<stop  offset="1" style="stop-color:#C18EF1"/>
						</linearGradient>
						<path style="fill:url(#SVGID_00000025413551327825530300000004961364140126557619_);" d="M112.2,23.4v65.5
							c0,0.8-0.2,1.5-0.6,2.2c-0.4,0.7-0.9,1.3-1.5,1.7l-28,18.7c0.6-0.4,1.2-1,1.5-1.7c0.4-0.7,0.6-1.4,0.6-2.2l0-34.7l0-33.4
							l0-34.7c0-0.8-0.2-1.5-0.5-2.2c-0.4-0.7-0.9-1.3-1.5-1.7l28.1,18.7c0.6,0.4,1.2,1,1.5,1.7C112,21.8,112.2,22.6,112.2,23.4z"/>
					</g>
				</g>
			</g>
		</g>
	</g>
</g>
</svg>
