<?xml version="1.0" encoding="utf-8"?>
<!-- Generator: Adobe Illustrator 26.3.1, SVG Export Plug-In . SVG Version: 6.00 Build 0)  -->
<svg version="1.1" id="Capa_1" xmlns="http://www.w3.org/2000/svg" xmlns:xlink="http://www.w3.org/1999/xlink" x="0px" y="0px"
	 viewBox="0 0 112.2 112.2" style="enable-background:new 0 0 112.2 112.2;" xml:space="preserve">
<style type="text/css">
	.st0{fill:#A179DC;}
	.st1{fill:#280068;}
	.st2{fill:#390091;}
	.st3{fill:#FFFFFF;}
</style>
<g>
	<path class="st0" d="M106,33c0-1.9-0.4-3.6-1.2-5c-0.8-1.4-2-2.6-3.6-3.5c-13.3-7.7-26.6-15.3-39.9-23c-3.6-2.1-7.1-2-10.6,0.1
		C45.4,4.7,18.9,19.9,11,24.5c-3.3,1.9-4.8,4.8-4.8,8.5c0,15.4,0,30.8,0,46.2c0,1.8,0.4,3.5,1.2,4.9c0.8,1.4,2,2.7,3.7,3.6
		c7.9,4.6,34.4,19.7,39.7,22.9c3.6,2.1,7,2.2,10.6,0.1c13.3-7.7,26.6-15.3,39.9-23c1.6-1,2.9-2.2,3.7-3.6c0.8-1.4,1.2-3,1.2-4.9
		C106,79.2,106,48.4,106,33"/>
	<path class="st1" d="M56.3,55.9L7.4,84.1c0.8,1.4,2,2.7,3.7,3.6c7.9,4.6,34.4,19.7,39.7,22.9c3.6,2.1,7,2.2,10.6,0.1
		c13.3-7.7,26.6-15.3,39.9-23c1.6-1,2.9-2.2,3.7-3.6L56.3,55.9z"/>
	<path class="st2" d="M106,33c0-1.9-0.4-3.6-1.2-5L56.3,55.9l48.6,28.2c0.8-1.4,1.2-3,1.2-4.9C106,79.2,106,48.4,106,33"/>
	<g>
		<path class="st3" d="M85,45.4v5.3h5.3v-5.3h2.6v5.3h5.3v2.6h-5.3v5.3h5.3v2.6h-5.3v5.3h-2.6v-5.3H85v5.3h-2.6v-5.3h-5.3v-2.6h5.3
			v-5.3h-5.3v-2.6h5.3v-5.3L85,45.4z M90.3,53.3H85v5.3h5.3V53.3z"/>
		<path class="st3" d="M56.4,19c13.7,0,25.7,7.5,32.1,18.5l-0.1-0.1l-16.2,9.3c-3.2-5.4-9-9-15.7-9.1l-0.2,0
			c-10.2,0-18.5,8.3-18.5,18.5c0,3.2,0.8,6.4,2.4,9.2c3.2,5.6,9.2,9.3,16,9.3c6.9,0,12.9-3.8,16.1-9.4l-0.1,0.1l16.1,9.3
			c-6.3,11-18.2,18.4-31.7,18.6l-0.4,0c-13.8,0-25.8-7.5-32.2-18.6c-3.1-5.4-4.9-11.7-4.9-18.5C19.3,35.6,35.9,19,56.4,19L56.4,19z"
			/>
	</g>
</g>
</svg>
