<?xml version="1.0" encoding="utf-8"?>
<!-- Generator: Adobe Illustrator 23.0.2, SVG Export Plug-In . SVG Version: 6.00 Build 0)  -->
<svg version="1.1" id="Layer_1" xmlns="http://www.w3.org/2000/svg" xmlns:xlink="http://www.w3.org/1999/xlink" x="0px" y="0px"
	 viewBox="0 0 80 80" style="enable-background:new 0 0 80 80;" xml:space="preserve">
<style type="text/css">
	.st0{fill:#0089C2;}
	.st1{fill:#264DE4;}
	.st2{fill:#2965F1;}
	.st3{fill:#EBEBEB;}
	.st4{fill:#FFFFFF;}
</style>
<g>
	<g>
		<rect class="st0" width="80" height="80"/>
	</g>
</g>
<g id="layer1" transform="translate(-193.633,-276.3622)">
	<g id="g3013" transform="translate(119,276.3622)">
		<polygon id="polygon2989" class="st1" points="141.3,17.2 136.4,71.6 114.6,77.6 92.8,71.6 88,17.2 		"/>
		<polygon id="polygon2991" class="st2" points="132.3,68.1 136.4,21.6 114.6,21.6 114.6,73 		"/>
		<polygon id="polygon2993" class="st3" points="99.1,41.8 99.7,48.5 114.6,48.5 114.6,41.8 		"/>
		<polygon id="polygon2995" class="st3" points="114.6,28.3 114.6,28.3 97.9,28.3 98.5,35 114.6,35 		"/>
		<polygon id="polygon2997" class="st3" points="114.6,66.1 114.6,59.1 114.6,59.1 107.2,57.1 106.7,51.8 103.1,51.8 100,51.8 
			100.9,62.3 114.6,66.1 		"/>
		<path id="path2999" d="M100.5,2.4h8.1v3.4h-4.7v3.4h4.7v3.4h-8.1V2.4z"/>
		<path id="path3001" d="M110.2,2.4h8.1v2.9h-4.7v0.6h4.7v6.8h-8.1V9.6h4.7V9h-4.7V2.4z"/>
		<path id="path3003" d="M119.9,2.4h8.1v2.9h-4.7v0.6h4.7v6.8h-8.1V9.6h4.7V9h-4.7V2.4z"/>
		<polygon id="polygon3005" class="st4" points="122.8,48.5 122,57.1 114.6,59.1 114.6,66.1 128.3,62.3 128.4,61.1 130,43.6 
			130.1,41.8 131.3,28.3 114.6,28.3 114.6,35 124,35 123.4,41.8 114.6,41.8 114.6,48.5 		"/>
	</g>
</g>
</svg>
