<?xml version="1.0" encoding="utf-8"?>
<!-- Generator: Adobe Illustrator 26.3.1, SVG Export Plug-In . SVG Version: 6.00 Build 0)  -->
<svg version="1.1" id="Capa_1" xmlns="http://www.w3.org/2000/svg" xmlns:xlink="http://www.w3.org/1999/xlink" x="0px" y="0px"
	 viewBox="0 0 112.2 112.2" style="enable-background:new 0 0 112.2 112.2;" xml:space="preserve">
<style type="text/css">
	.st0{fill:#FFFFFF;}
	.st1{fill:#F32735;}
</style>
<path class="st0" d="M110.1,51.1l-49-49c-2.8-2.8-7.4-2.8-10.2,0L2.1,50.9c-2.8,2.8-2.8,7.4,0,10.2l49,49c2.8,2.8,7.4,2.8,10.2,0
	l48.8-48.8C112.9,58.5,112.9,53.9,110.1,51.1z"/>
<path class="st1" d="M110.1,51.1l-49-49c-2.8-2.8-7.4-2.8-10.2,0L40.7,12.3l12.9,12.9c3-1,6.4-0.3,8.8,2.1s3.1,5.9,2,8.9l12.4,12.4
	c3-1,6.5-0.4,8.9,2c3.4,3.4,3.4,8.8,0,12.2c-3.4,3.4-8.8,3.4-12.2,0c-2.5-2.5-3.2-6.2-1.9-9.4L60.2,41.8v30.5
	c0.8,0.4,1.6,0.9,2.3,1.6c3.4,3.4,3.4,8.8,0,12.2c-3.4,3.4-8.8,3.4-12.2,0s-3.4-8.8,0-12.2c0.8-0.8,1.8-1.5,2.8-1.9V41.3
	c-1-0.4-2-1-2.8-1.9c-2.5-2.5-3.2-6.3-1.9-9.4L35.7,17.3L2.1,50.9c-2.8,2.8-2.8,7.4,0,10.2l49,49c2.8,2.8,7.4,2.8,10.2,0l48.8-48.8
	C112.9,58.5,112.9,53.9,110.1,51.1L110.1,51.1z"/>
</svg>
