<?xml version="1.0" encoding="utf-8"?>
<!-- Generator: Adobe Illustrator 23.0.2, SVG Export Plug-In . SVG Version: 6.00 Build 0)  -->
<svg version="1.1" id="Layer_1" xmlns="http://www.w3.org/2000/svg" xmlns:xlink="http://www.w3.org/1999/xlink" x="0px" y="0px"
	 viewBox="0 0 80 80" style="enable-background:new 0 0 80 80;" xml:space="preserve">
<style type="text/css">
	.st0{fill:#0089C2;}
	.st1{fill:#DC6E47;}
	.st2{fill:#E7804A;}
	.st3{fill:#E7E8EC;}
	.st4{fill:#231F20;}
	.st5{fill:#FFFFFF;}
</style>
<g>
	<g>
		<rect y="0" class="st0" width="80" height="80"/>
		<g>
			<g>
				<title>HTML5 Logo</title>
				<polygon class="st1" points="18.1,71.5 13.3,17.1 66.5,17.1 61.7,71.5 39.9,77.6 				"/>
				<polygon class="st2" points="39.9,72.9 57.5,68 61.7,21.6 39.9,21.6 				"/>
				<polygon class="st3" points="39.9,41.7 31.1,41.7 30.5,34.9 39.9,34.9 39.9,28.2 39.9,28.2 23.2,28.2 23.3,30 25,48.4 
					39.9,48.4 				"/>
				<polygon class="st3" points="39.9,59.1 39.9,59.1 32.4,57.1 32,51.8 28.4,51.8 25.3,51.8 26.2,62.2 39.9,66 39.9,66 				"/>
				<path class="st4" d="M18.2,2.4h3.4v3.3h3.1V2.4h3.4v10.1h-3.4V9.1h-3.1v3.4h-3.4L18.2,2.4L18.2,2.4z"/>
				<path class="st4" d="M32.6,5.7h-3V2.4h9.4v3.4h-3v6.8h-3.4L32.6,5.7L32.6,5.7z"/>
				<path class="st4" d="M40.4,2.4H44l2.2,3.6l2.2-3.6h3.5v10.1h-3.4v-5l-2.3,3.6h-0.1l-2.3-3.6v5h-3.3V2.4z"/>
				<path class="st4" d="M53.5,2.4h3.4v6.8h4.8v3.4h-8.2V2.4z"/>
				<polygon class="st5" points="39.9,41.7 39.9,48.4 48.1,48.4 47.3,57.1 39.9,59.1 39.9,66 53.6,62.2 53.7,61.1 55.2,43.5 
					55.4,41.7 53.6,41.7 				"/>
				<polygon class="st5" points="39.9,28.2 39.9,32.4 39.9,34.9 39.9,34.9 56,34.9 56,34.9 56,34.9 56.1,33.4 56.4,30 56.6,28.2 
									"/>
			</g>
		</g>
	</g>
</g>
</svg>
