<?xml version="1.0" encoding="utf-8"?>
<!-- Generator: Adobe Illustrator 26.3.1, SVG Export Plug-In . SVG Version: 6.00 Build 0)  -->
<svg version="1.1" id="Layer_1" xmlns="http://www.w3.org/2000/svg" xmlns:xlink="http://www.w3.org/1999/xlink" x="0px" y="0px"
	 viewBox="0 0 80 80" style="enable-background:new 0 0 80 80;" xml:space="preserve">
<style type="text/css">
	.st0{fill-rule:evenodd;clip-rule:evenodd;fill:#2C100F;}
	.st1{fill-rule:evenodd;clip-rule:evenodd;fill:#F7991C;}
</style>
<g>
	<path class="st0" d="M11.5,0h57C74.8,0,80,5.2,80,11.5v57C80,74.8,74.8,80,68.5,80h-57C5.2,80,0,74.8,0,68.5v-57
		C0,5.2,5.2,0,11.5,0z"/>
	<path class="st1" d="M40.9,50.1H29.3l-2.2,6.6h-7l12-32.1h6.1l12,32.1h-7L40.9,50.1L40.9,50.1z M31.1,44.7h8l-4-12L31.1,44.7
		L31.1,44.7z M59.5,56.6h-6.4V32.8h6.4V56.6L59.5,56.6z M52.7,26.6c0-0.9,0.3-1.7,1-2.4c0.6-0.6,1.5-0.9,2.6-0.9
		c1.1,0,2,0.3,2.6,0.9c0.6,0.6,1,1.4,1,2.4c0,1-0.3,1.8-1,2.4c-0.7,0.6-1.5,0.9-2.6,0.9c-1.1,0-1.9-0.3-2.6-0.9
		C53.1,28.4,52.7,27.6,52.7,26.6z"/>
</g>
</svg>
