<?xml version="1.0" encoding="utf-8"?>
<!-- Generator: Adobe Illustrator 24.0.1, SVG Export Plug-In . SVG Version: 6.00 Build 0)  -->
<svg version="1.1" id="Capa_1" xmlns="http://www.w3.org/2000/svg" xmlns:xlink="http://www.w3.org/1999/xlink" x="0px" y="0px"
	 viewBox="0 0 112.2 112.2" style="enable-background:new 0 0 112.2 112.2;" xml:space="preserve">
<style type="text/css">
	.st0{fill:#FFFFFF;}
	.st1{fill:#5382A1;}
	.st2{fill:#E76F00;}
</style>
<rect class="st0" width="112.2" height="112.2"/>
<g>
	<path class="st1" d="M45.4,78.3c0,0-3.1,1.8,2.2,2.4c6.4,0.7,9.7,0.6,16.8-0.7c0,0,1.9,1.2,4.5,2.2C53,89,32.9,81.8,45.4,78.3"/>
	<path class="st1" d="M43.5,69.4c0,0-3.5,2.6,1.8,3.1c6.9,0.7,12.3,0.8,21.7-1c0,0,1.3,1.3,3.3,2C51.1,79.2,29.7,74,43.5,69.4"/>
	<path class="st2" d="M59.9,54.3c3.9,4.5-1,8.6-1,8.6s10-5.1,5.4-11.6c-4.3-6-7.5-9,10.2-19.3C74.4,32.1,46.6,39,59.9,54.3"/>
	<path class="st1" d="M80.9,84.9c0,0,2.3,1.9-2.5,3.4c-9.2,2.8-38.2,3.6-46.3,0.1c-2.9-1.3,2.5-3,4.2-3.4c1.8-0.4,2.8-0.3,2.8-0.3
		c-3.2-2.3-20.8,4.5-8.9,6.4C62.6,96.3,89.3,88.7,80.9,84.9"/>
	<path class="st1" d="M46.9,60.2c0,0-14.8,3.5-5.2,4.8c4,0.5,12.1,0.4,19.5-0.2c6.1-0.5,12.3-1.6,12.3-1.6s-2.2,0.9-3.7,2
		c-15,3.9-44,2.1-35.6-1.9C41.2,59.8,46.9,60.2,46.9,60.2"/>
	<path class="st1" d="M73.4,75c15.2-7.9,8.2-15.5,3.3-14.5C75.5,60.7,75,61,75,61s0.4-0.7,1.3-1c9.7-3.4,17.2,10.1-3.1,15.4
		C73.1,75.4,73.4,75.2,73.4,75"/>
	<path class="st2" d="M64.2,15.5c0,0,8.4,8.4-8,21.4c-13.2,10.4-3,16.4,0,23.1c-7.7-6.9-13.4-13.1-9.6-18.8
		C52.2,32.9,67.6,28.9,64.2,15.5"/>
	<path class="st1" d="M48.4,96.5C63.1,97.4,85.5,96,86.1,89c0,0-1,2.6-12.1,4.7c-12.5,2.4-27.9,2.1-37,0.6
		C36.9,94.3,38.8,95.9,48.4,96.5"/>
</g>
</svg>
