<?xml version="1.0" encoding="utf-8"?>
<!-- Generator: Adobe Illustrator 26.3.1, SVG Export Plug-In . SVG Version: 6.00 Build 0)  -->
<svg version="1.1" id="Capa_1" xmlns="http://www.w3.org/2000/svg" xmlns:xlink="http://www.w3.org/1999/xlink" x="0px" y="0px"
	 viewBox="0 0 40 40" style="enable-background:new 0 0 40 40;" xml:space="preserve">
<style type="text/css">
	.st0{clip-path:url(#SVGID_00000143594332139093912840000017270790845290424464_);fill:#FFFFFF;}
	.st1{clip-path:url(#SVGID_00000123405099949796252580000010471658798520474037_);fill:#FFFFFF;}
	.st2{clip-path:url(#SVGID_00000034064800668174331450000007536786438904044976_);fill:#FFFFFF;}
	.st3{clip-path:url(#SVGID_00000138536256136100761520000002646696068251953846_);fill:#FFFFFF;}
	.st4{fill:#FFFFFF;}
</style>
<g>
	<g>
		<g>
			<g>
				<defs>
					<rect id="SVGID_1_" x="5" y="7.8" width="30" height="24.4"/>
				</defs>
				<clipPath id="SVGID_00000096750296147318789780000013644296278543215506_">
					<use xlink:href="#SVGID_1_"  style="overflow:visible;"/>
				</clipPath>
				<path style="clip-path:url(#SVGID_00000096750296147318789780000013644296278543215506_);fill:#FFFFFF;" d="M31.6,9H8.6
					C7.8,9,7,9.7,7,10.5v15.8C7,27.2,7.7,28,8.6,28h7.9v1.1c0,1.1-0.8,1.9-1.9,1.9h-1.7c-0.3,0-0.6,0.3-0.6,0.6
					c0,0.3,0.3,0.6,0.6,0.6h14.5c0.3,0,0.6-0.3,0.6-0.6c0-0.3-0.3-0.6-0.6-0.6h-1.7c-1.1,0-1.9-0.8-1.9-1.9V28h7.9
					c0.8,0,1.6-0.7,1.6-1.6V10.5C33.1,9.7,32.4,9,31.6,9z M17,31c0.4-0.5,0.6-1.2,0.6-1.9V28h4.8v1.1c0,0.7,0.2,1.4,0.6,1.9H17z
					 M31.9,26.4c0,0.2-0.2,0.4-0.4,0.4H8.6c-0.2,0-0.4-0.2-0.4-0.4v-3.2h23.7V26.4z M31.9,22H8.2V10.5c0-0.2,0.2-0.4,0.4-0.4h22.9
					c0.2,0,0.4,0.2,0.4,0.4V22L31.9,22z"/>
			</g>
			<g>
				<defs>
					<rect id="SVGID_00000112605818950440741430000017846849753743037096_" x="5" y="7.8" width="30" height="24.4"/>
				</defs>
				<clipPath id="SVGID_00000036972814675766448170000010210423801957140884_">
					<use xlink:href="#SVGID_00000112605818950440741430000017846849753743037096_"  style="overflow:visible;"/>
				</clipPath>
				
					<circle style="clip-path:url(#SVGID_00000036972814675766448170000010210423801957140884_);fill:#FFFFFF;" cx="20.1" cy="25" r="0.6"/>
			</g>
			<g>
				<defs>
					<rect id="SVGID_00000133502925405007220520000015641100989912273085_" x="5" y="7.8" width="30" height="24.4"/>
				</defs>
				<clipPath id="SVGID_00000167370180317813021680000004925023333477856446_">
					<use xlink:href="#SVGID_00000133502925405007220520000015641100989912273085_"  style="overflow:visible;"/>
				</clipPath>
				<path style="clip-path:url(#SVGID_00000167370180317813021680000004925023333477856446_);fill:#FFFFFF;" d="M21.1,13.1
					c-0.2-0.2-0.6-0.2-0.8,0L16,17.3c-0.2,0.2-0.2,0.6,0,0.8c0.1,0.1,0.3,0.2,0.4,0.2c0.2,0,0.3,0,0.4-0.2l4.2-4.2
					C21.4,13.7,21.4,13.3,21.1,13.1z"/>
			</g>
			<g>
				<defs>
					<rect id="SVGID_00000021114468246952430030000011364093808383380890_" x="5" y="7.8" width="30" height="24.4"/>
				</defs>
				<clipPath id="SVGID_00000170990092162744666770000005904361504627657898_">
					<use xlink:href="#SVGID_00000021114468246952430030000011364093808383380890_"  style="overflow:visible;"/>
				</clipPath>
				<path style="clip-path:url(#SVGID_00000170990092162744666770000005904361504627657898_);fill:#FFFFFF;" d="M23.6,15.6
					c-0.2-0.2-0.6-0.2-0.8,0l-1.7,1.7c-0.2,0.2-0.2,0.6,0,0.8c0.1,0.1,0.3,0.2,0.4,0.2c0.2,0,0.3,0,0.4-0.2l1.7-1.7
					C23.9,16.2,23.9,15.8,23.6,15.6z"/>
			</g>
		</g>
	</g>
	<path class="st4" d="M20,40C9,40,0,31,0,20S9,0,20,0s20,9,20,20S31,40,20,40z M20,1.1C9.6,1.1,1.1,9.6,1.1,20
		c0,10.4,8.5,18.9,18.9,18.9S38.9,30.4,38.9,20C38.9,9.6,30.4,1.1,20,1.1z"/>
</g>
</svg>
