<?xml version="1.0" encoding="utf-8"?>
<!-- Generator: Adobe Illustrator 26.3.1, SVG Export Plug-In . SVG Version: 6.00 Build 0)  -->
<svg version="1.1" id="Capa_1" xmlns="http://www.w3.org/2000/svg" xmlns:xlink="http://www.w3.org/1999/xlink" x="0px" y="0px"
	 viewBox="0 0 40 40" style="enable-background:new 0 0 40 40;" xml:space="preserve">
<style type="text/css">
	.st0{fill:#FFFFFF;}
</style>
<g>
	<g>
		<path class="st0" d="M32.3,11.6L32.3,11.6h-6.9v-0.8c0-1.3-1-2.3-2.3-2.3H17c-1.3,0-2.3,1-2.3,2.3v0.8h-7c-0.4,0-0.8,0.4-0.8,0.8
			v16.8c0,1.3,1,2.3,2.3,2.3h21.5c1.3,0,2.3-1,2.3-2.3V12.4l0,0C33,11.9,32.7,11.6,32.3,11.6z M16.9,10.1H23c0.4,0,0.8,0.3,0.8,0.8
			v0.7h-7.6v-0.8C16.1,10.4,16.5,10.1,16.9,10.1z M31.2,13.1l-2.4,7.1c-0.1,0.3-0.4,0.5-0.7,0.5h-4.3v-0.8c0-0.4-0.3-0.8-0.8-0.8
			h-6.1c-0.4,0-0.8,0.3-0.8,0.8v0.8h-4.3c-0.3,0-0.6-0.2-0.7-0.5l-2.4-7.1H31.2z M22.3,20.8v1.5h-4.6v-1.5H22.3z M31.5,29.2
			c0,0.4-0.3,0.8-0.8,0.8H9.2c-0.4,0-0.8-0.3-0.8-0.8V17.1l1.2,3.7c0.3,0.9,1.2,1.6,2.2,1.6h4.3v0.8c0,0.4,0.3,0.8,0.8,0.8H23
			c0.4,0,0.8-0.3,0.8-0.8v-0.8h4.3c1,0,1.9-0.6,2.2-1.6l1.2-3.7V29.2L31.5,29.2z"/>
	</g>
	<path class="st0" d="M20,40C9,40,0,31,0,20S9,0,20,0s20,9,20,20S31,40,20,40z M20,1.1C9.6,1.1,1.1,9.6,1.1,20S9.6,38.9,20,38.9
		S38.9,30.4,38.9,20S30.4,1.1,20,1.1z"/>
</g>
</svg>
