<?xml version="1.0" encoding="utf-8"?>
<!-- Generator: Adobe Illustrator 26.3.1, SVG Export Plug-In . SVG Version: 6.00 Build 0)  -->
<svg version="1.1" id="Capa_1" xmlns="http://www.w3.org/2000/svg" xmlns:xlink="http://www.w3.org/1999/xlink" x="0px" y="0px"
	 viewBox="0 0 112.2 112.2" style="enable-background:new 0 0 112.2 112.2;" xml:space="preserve">
<style type="text/css">
	.st0{fill:#FFFFFF;}
	.st1{fill:#689F63;}
	.st2{fill-rule:evenodd;clip-rule:evenodd;fill:#333333;}
	.st3{fill-rule:evenodd;clip-rule:evenodd;fill:#689F63;}
	.st4{clip-path:url(#SVGID_00000080887658027940907000000003661221704016497285_);}
	.st5{fill:url(#SVGID_00000130609570336997941750000007545425007518415488_);}
	.st6{clip-path:url(#SVGID_00000104697151769670964030000009640845130905229990_);}
	.st7{fill:url(#SVGID_00000142145761572925020810000016885202985401549702_);}
	.st8{clip-path:url(#SVGID_00000085935227639986767990000012895109234730106803_);}
	.st9{fill:url(#SVGID_00000118372856374685910470000018027524829527659455_);}
</style>
<rect y="0" class="st0" width="112.2" height="112.2"/>
<g>
	<path class="st1" d="M55.5,90.5c-0.4,0-0.7-0.1-1.1-0.3l-3.4-2c-0.5-0.3-0.3-0.4-0.1-0.4c0.7-0.2,0.8-0.3,1.5-0.7
		c0.1,0,0.2,0,0.3,0l2.6,1.5c0.1,0.1,0.2,0.1,0.3,0l10.1-5.8c0.1-0.1,0.2-0.2,0.2-0.3V70.8c0-0.1-0.1-0.2-0.2-0.3l-10.1-5.8
		c-0.1-0.1-0.2-0.1-0.3,0l-10.1,5.8c-0.1,0.1-0.2,0.2-0.2,0.3v11.7c0,0.1,0.1,0.2,0.2,0.3l2.8,1.6c1.5,0.8,2.4-0.1,2.4-1V71.8
		c0-0.2,0.1-0.3,0.3-0.3H52c0.2,0,0.3,0.1,0.3,0.3v11.5c0,2-1.1,3.2-3,3.2c-0.6,0-1,0-2.3-0.6l-2.7-1.5c-0.7-0.4-1.1-1.1-1.1-1.8
		V70.8c0-0.8,0.4-1.5,1.1-1.8l10.1-5.9c0.6-0.4,1.5-0.4,2.1,0l10.1,5.9c0.7,0.4,1.1,1.1,1.1,1.8v11.7c0,0.8-0.4,1.5-1.1,1.8
		l-10.1,5.9C56.2,90.4,55.8,90.5,55.5,90.5"/>
	<path class="st1" d="M58.6,82.4c-4.4,0-5.4-2-5.4-3.7c0-0.2,0.1-0.3,0.3-0.3h1.3c0.1,0,0.3,0.1,0.3,0.2c0.2,1.3,0.8,2,3.5,2
		c2.1,0,3-0.5,3-1.6c0-0.7-0.3-1.1-3.6-1.5c-2.8-0.3-4.5-0.9-4.5-3.1c0-2,1.7-3.3,4.6-3.3c3.2,0,4.9,1.1,5.1,3.5
		c0,0.1,0,0.2-0.1,0.2C63.1,75,63,75,62.9,75h-1.3c-0.1,0-0.3-0.1-0.3-0.2C61,73.4,60.3,73,58.2,73c-2.3,0-2.6,0.8-2.6,1.4
		c0,0.7,0.3,1,3.5,1.4c3.1,0.4,4.6,1,4.6,3.2C63.6,81.1,61.8,82.4,58.6,82.4 M70.9,70h0.3c0.3,0,0.3-0.2,0.3-0.3
		c0-0.3-0.2-0.3-0.3-0.3h-0.4L70.9,70z M70.5,69.1h0.8c0.3,0,0.8,0,0.8,0.6c0,0.4-0.3,0.5-0.4,0.5c0.3,0,0.3,0.2,0.4,0.5
		c0,0.2,0.1,0.5,0.1,0.6h-0.5c0-0.1-0.1-0.7-0.1-0.7c0-0.1-0.1-0.2-0.2-0.2h-0.4v0.9h-0.4V69.1z M69.6,70.1c0,0.9,0.7,1.6,1.6,1.6
		c0.9,0,1.6-0.8,1.6-1.6c0-0.9-0.7-1.6-1.6-1.6C70.3,68.5,69.6,69.2,69.6,70.1 M73.2,70.2c0,1.1-0.9,2-2,2c-1.1,0-2-0.9-2-2
		c0-1.1,0.9-2,2-2C72.3,68.2,73.2,69,73.2,70.2"/>
	<path class="st2" d="M24.1,44.7c0-0.5-0.2-0.9-0.6-1.1l-10.7-6.2c-0.2-0.1-0.4-0.2-0.6-0.2H12c-0.2,0-0.4,0.1-0.6,0.2L0.6,43.6
		C0.2,43.8,0,44.2,0,44.7l0,16.6c0,0.2,0.1,0.4,0.3,0.6C0.5,62,0.8,62,1,61.9l6.4-3.7C7.8,58,8,57.6,8,57.1v-7.8
		c0-0.5,0.2-0.9,0.6-1.1l2.7-1.6c0.2-0.1,0.4-0.2,0.6-0.2c0.2,0,0.4,0.1,0.6,0.2l2.7,1.6c0.4,0.2,0.6,0.7,0.6,1.1v7.8
		c0,0.5,0.2,0.9,0.7,1.1l6.4,3.7c0.2,0.1,0.4,0.1,0.6,0c0.2-0.1,0.3-0.3,0.3-0.6L24.1,44.7z M74.8,53.4c0,0.1-0.1,0.2-0.2,0.3
		l-3.7,2.1c-0.1,0.1-0.2,0.1-0.3,0l-3.7-2.1c-0.1-0.1-0.2-0.2-0.2-0.3v-4.3c0-0.1,0.1-0.2,0.2-0.3l3.7-2.1c0.1-0.1,0.2-0.1,0.3,0
		l3.7,2.1c0.1,0.1,0.2,0.2,0.2,0.3L74.8,53.4z M75.8,21.8c-0.2-0.1-0.4-0.1-0.6,0c-0.2,0.1-0.3,0.3-0.3,0.6v16.5
		c0,0.2-0.1,0.3-0.2,0.4c-0.1,0.1-0.3,0.1-0.5,0l-2.7-1.5c-0.4-0.2-0.9-0.2-1.3,0l-10.7,6.2c-0.4,0.2-0.6,0.7-0.6,1.1v12.4
		c0,0.5,0.2,0.9,0.6,1.1l10.7,6.2c0.4,0.2,0.9,0.2,1.3,0l10.7-6.2c0.4-0.2,0.6-0.7,0.6-1.1V26.5c0-0.5-0.3-0.9-0.7-1.1L75.8,21.8z
		 M111.6,49c0.4-0.2,0.6-0.7,0.6-1.1v-3c0-0.5-0.2-0.9-0.6-1.1l-10.7-6.2c-0.4-0.2-0.9-0.2-1.3,0l-10.7,6.2
		c-0.4,0.2-0.6,0.7-0.6,1.1v12.4c0,0.5,0.3,0.9,0.7,1.1l10.7,6.1c0.4,0.2,0.9,0.2,1.3,0l6.5-3.6c0.2-0.1,0.3-0.3,0.3-0.6
		s-0.1-0.5-0.3-0.6l-10.8-6.2c-0.2-0.1-0.3-0.3-0.3-0.6v-3.9c0-0.2,0.1-0.4,0.3-0.6l3.4-1.9c0.2-0.1,0.4-0.1,0.6,0l3.4,1.9
		c0.2,0.1,0.3,0.3,0.3,0.6v3.1c0,0.2,0.1,0.4,0.3,0.6c0.2,0.1,0.4,0.1,0.6,0L111.6,49z"/>
	<path class="st3" d="M100.1,48.4c0.1,0,0.2,0,0.2,0l2.1,1.2c0.1,0,0.1,0.1,0.1,0.2v2.4c0,0.1,0,0.2-0.1,0.2l-2.1,1.2
		c-0.1,0-0.2,0-0.2,0L98,52.4c-0.1,0-0.1-0.1-0.1-0.2v-2.4c0-0.1,0-0.2,0.1-0.2L100.1,48.4z"/>
	<g>
		<defs>
			<path id="SVGID_1_" d="M40.8,37.6l-10.7,6.2c-0.4,0.2-0.6,0.7-0.6,1.1v12.3c0,0.5,0.2,0.9,0.6,1.1l10.7,6.2
				c0.4,0.2,0.9,0.2,1.3,0l10.7-6.2c0.4-0.2,0.6-0.7,0.6-1.1V44.9c0-0.5-0.2-0.9-0.6-1.1l-10.7-6.2c-0.2-0.1-0.4-0.2-0.6-0.2
				C41.2,37.4,41,37.5,40.8,37.6"/>
		</defs>
		<clipPath id="SVGID_00000165950755945051961580000002930582405636405943_">
			<use xlink:href="#SVGID_1_"  style="overflow:visible;"/>
		</clipPath>
		<g transform="translate(-78.306 -164.016)" style="clip-path:url(#SVGID_00000165950755945051961580000002930582405636405943_);">
			
				<linearGradient id="SVGID_00000138556022037400237340000006856936977634745789_" gradientUnits="userSpaceOnUse" x1="114.3321" y1="237.8322" x2="114.6363" y2="237.8322" gradientTransform="matrix(-50.7531 103.536 103.536 50.7531 -18694.0449 -23708.8477)">
				<stop  offset="0.3" style="stop-color:#3E863D"/>
				<stop  offset="0.5" style="stop-color:#55934F"/>
				<stop  offset="0.8" style="stop-color:#5AAD45"/>
			</linearGradient>
			<path style="fill:url(#SVGID_00000138556022037400237340000006856936977634745789_);" d="M142.5,206.8L112.4,192l-15.4,31.5
				l30.1,14.8L142.5,206.8z"/>
		</g>
	</g>
	<g>
		<defs>
			<path id="SVGID_00000082368473482269458600000014734903666616436388_" d="M29.7,58c0.1,0.1,0.2,0.2,0.4,0.3l9.2,5.3l1.5,0.9
				c0.2,0.1,0.5,0.2,0.7,0.2c0.1,0,0.2,0,0.3,0L53,44c-0.1-0.1-0.2-0.2-0.3-0.2l-7-4L42,37.6c-0.1-0.1-0.2-0.1-0.3-0.1L29.7,58z"/>
		</defs>
		<clipPath id="SVGID_00000168090851577484818500000006980985887634924430_">
			<use xlink:href="#SVGID_00000082368473482269458600000014734903666616436388_"  style="overflow:visible;"/>
		</clipPath>
		<g transform="translate(-78.306 -164.016)" style="clip-path:url(#SVGID_00000168090851577484818500000006980985887634924430_);">
			
				<linearGradient id="SVGID_00000008843370175846689590000000695988003352892580_" gradientUnits="userSpaceOnUse" x1="113.774" y1="241.3665" x2="113.9714" y2="241.3665" gradientTransform="matrix(142.4074 -105.2221 -105.2221 -142.4074 9300.458 46569.418)">
				<stop  offset="0.57" style="stop-color:#3E863D"/>
				<stop  offset="0.72" style="stop-color:#619857"/>
				<stop  offset="1" style="stop-color:#76AC64"/>
			</linearGradient>
			<path style="fill:url(#SVGID_00000008843370175846689590000000695988003352892580_);" d="M95,211.1l21.3,28.8l28.1-20.8
				l-21.3-28.8L95,211.1z"/>
		</g>
	</g>
	<g>
		<defs>
			<path id="SVGID_00000121237931842661081520000005632398202985554305_" d="M41.3,37.5c-0.2,0-0.4,0.1-0.5,0.2l-10.7,6.1l11.5,20.9
				c0.2,0,0.3-0.1,0.5-0.2l10.7-6.2c0.3-0.2,0.6-0.5,0.6-0.9l-11.7-20c-0.1,0-0.2,0-0.3,0C41.4,37.4,41.3,37.4,41.3,37.5"/>
		</defs>
		<clipPath id="SVGID_00000021822870951207141890000003367701333172884614_">
			<use xlink:href="#SVGID_00000121237931842661081520000005632398202985554305_"  style="overflow:visible;"/>
		</clipPath>
		<g transform="translate(-78.306 -164.016)" style="clip-path:url(#SVGID_00000021822870951207141890000003367701333172884614_);">
			
				<linearGradient id="SVGID_00000134943794188001880790000010904971692578988978_" gradientUnits="userSpaceOnUse" x1="113.0847" y1="241.087" x2="113.2637" y2="241.087" gradientTransform="matrix(129.8891 0 0 -129.8891 -14580.0566 31529.6621)">
				<stop  offset="0.16" style="stop-color:#6BBF47"/>
				<stop  offset="0.38" style="stop-color:#79B461"/>
				<stop  offset="0.47" style="stop-color:#75AC64"/>
				<stop  offset="0.7" style="stop-color:#659E5A"/>
				<stop  offset="0.9" style="stop-color:#3E863D"/>
			</linearGradient>
			<path style="fill:url(#SVGID_00000134943794188001880790000010904971692578988978_);" d="M108.4,201.5v27.2h23.3v-27.2H108.4z"/>
		</g>
	</g>
</g>
</svg>
