<?xml version="1.0" encoding="utf-8"?>
<!-- Generator: Adobe Illustrator 26.3.1, SVG Export Plug-In . SVG Version: 6.00 Build 0)  -->
<svg version="1.1" id="Layer_1" xmlns="http://www.w3.org/2000/svg" xmlns:xlink="http://www.w3.org/1999/xlink" x="0px" y="0px"
	 viewBox="0 0 80 80" style="enable-background:new 0 0 80 80;" xml:space="preserve">
<style type="text/css">
	.st0{fill-rule:evenodd;clip-rule:evenodd;fill:#061F34;}
	.st1{fill-rule:evenodd;clip-rule:evenodd;fill:#55A0D7;}
</style>
<g>
	<path class="st0" d="M11.5,0h57C74.8,0,80,5.2,80,11.5v57C80,74.8,74.8,80,68.5,80h-57C5.2,80,0,74.8,0,68.5v-57
		C0,5.2,5.2,0,11.5,0z"/>
	<path class="st1" d="M37.6,34.5c0,1.5-0.2,2.9-0.8,4.2c-0.5,1.3-1.2,2.4-2.2,3.3c-1,0.9-2.2,1.6-3.7,2.2c-1.5,0.5-3.2,0.8-5.1,0.8
		H23v9.3h-5.5V25.3H26c1.9,0,3.5,0.2,5,0.6c1.4,0.4,2.6,1,3.6,1.8c1,0.8,1.7,1.7,2.2,2.9C37.3,31.7,37.6,33,37.6,34.5L37.6,34.5z
		 M31.9,34.9c0-0.8-0.1-1.5-0.4-2.1c-0.2-0.6-0.6-1.2-1.1-1.6c-0.5-0.4-1.1-0.8-1.9-1c-0.8-0.2-1.6-0.4-2.7-0.4H23v10.5h3
		c0.9,0,1.8-0.1,2.5-0.4c0.7-0.3,1.3-0.6,1.8-1.1c0.5-0.5,0.9-1.1,1.1-1.7C31.8,36.5,31.9,35.7,31.9,34.9L31.9,34.9z M61,47.6
		c0,1.3-0.3,2.4-0.9,3.3c-0.6,0.9-1.3,1.6-2.3,2.2c-0.9,0.6-2,1-3.2,1.2c-1.2,0.3-2.4,0.4-3.6,0.4c-1.6,0-3.1-0.1-4.5-0.2
		c-1.3-0.2-2.6-0.4-3.8-0.7v-4.8c1.4,0.6,2.8,1,4.1,1.2c1.4,0.3,2.7,0.4,3.9,0.4c1.4,0,2.5-0.2,3.2-0.7c0.7-0.5,1-1,1-1.8
		c0-0.3-0.1-0.6-0.2-0.9c-0.2-0.3-0.4-0.5-0.8-0.8c-0.4-0.3-1-0.5-1.7-0.8c-0.7-0.3-1.7-0.6-2.9-0.9c-1.1-0.3-2.1-0.7-2.9-1
		c-0.8-0.4-1.5-0.9-2.1-1.4c-0.5-0.5-1-1.1-1.2-1.8c-0.3-0.7-0.4-1.5-0.4-2.5c0-0.9,0.2-1.8,0.6-2.6c0.4-0.8,1-1.5,1.8-2.1
		c0.8-0.6,1.8-1.1,3.1-1.4c1.2-0.4,2.6-0.5,4.3-0.5c1.4,0,2.7,0.1,3.8,0.2c1.1,0.2,2.1,0.3,2.9,0.5v4.4c-1.3-0.4-2.5-0.7-3.6-0.9
		c-1.1-0.2-2.2-0.3-3.3-0.3c-1.1,0-2,0.2-2.7,0.6c-0.7,0.4-1,0.9-1,1.6c0,0.3,0.1,0.6,0.2,0.9c0.1,0.3,0.4,0.5,0.8,0.8
		c0.4,0.2,0.9,0.5,1.6,0.8c0.7,0.3,1.6,0.6,2.8,0.9c1.3,0.4,2.4,0.8,3.3,1.2c0.9,0.4,1.6,0.9,2.1,1.4c0.5,0.5,0.9,1.1,1.2,1.8
		C60.9,45.9,61,46.7,61,47.6z"/>
</g>
</svg>
