<?xml version="1.0" encoding="utf-8"?>
<!-- Generator: Adobe Illustrator 26.3.1, SVG Export Plug-In . SVG Version: 6.00 Build 0)  -->
<svg version="1.1" id="Capa_1" xmlns="http://www.w3.org/2000/svg" xmlns:xlink="http://www.w3.org/1999/xlink" x="0px" y="0px"
	 viewBox="0 0 112.2 112.2" style="enable-background:new 0 0 112.2 112.2;" xml:space="preserve">
<style type="text/css">
	.st0{fill:#61DAFB;}
</style>
<g>
	<circle class="st0" cx="56.1" cy="56.1" r="10"/>
</g>
<g>
	<path class="st0" d="M111.4,56.1c0-7.7-9.3-14.3-23.7-18.2c0.6-2.5,1.2-4.9,1.5-7.2c1.8-11.4-0.1-19.4-5.5-22.5
		c-6.6-3.8-17,0.9-27.6,11.4C45.5,9.1,35.1,4.4,28.4,8.2c-5.3,3.1-7.3,11.1-5.5,22.5c0.4,2.3,0.9,4.7,1.5,7.2
		C10.1,41.8,0.8,48.4,0.8,56.1c0,7.7,9.3,14.3,23.7,18.2c-3.8,14.5-2.7,25.8,3.9,29.6c1.5,0.9,3.3,1.3,5.2,1.3
		c6.3,0,14.3-4.7,22.5-12.7c8.2,8.1,16.2,12.7,22.5,12.7c1.9,0,3.7-0.4,5.2-1.3c5.3-3.1,7.3-11.1,5.5-22.5c-0.4-2.3-0.9-4.7-1.5-7.2
		C102.1,70.4,111.4,63.8,111.4,56.1z M82.2,10.8c4.1,2.4,5.6,9.5,4,19.4c-0.4,2.2-0.9,4.5-1.5,6.9c-4.9-1.2-10.4-2-16.2-2.6
		c-3.4-4.8-6.8-9.1-10.3-12.8C67.7,12.3,76.9,7.7,82.2,10.8z M72.6,65.7c-1.8,3.2-3.8,6.2-5.8,9.1c-3.5,0.3-7.1,0.4-10.8,0.4
		c-3.7,0-7.3-0.2-10.8-0.4c-2-2.9-3.9-5.9-5.8-9.1c-1.8-3.2-3.5-6.4-5-9.5c1.5-3.2,3.2-6.4,5-9.6c1.8-3.2,3.8-6.2,5.8-9.1
		c3.5-0.3,7.1-0.4,10.8-0.4c3.7,0,7.3,0.2,10.8,0.4c2,2.9,3.9,5.9,5.8,9.1c1.8,3.2,3.5,6.4,5,9.6C76.2,59.3,74.5,62.5,72.6,65.7z
		 M79.3,59.6c1.9,4.3,3.5,8.5,4.7,12.5c-4.1,1-8.5,1.7-13.2,2.2c1.5-2.3,3-4.7,4.5-7.2C76.7,64.6,78,62.1,79.3,59.6z M64.6,78
		c-2.8,3.8-5.7,7.2-8.5,10.3c-2.9-3-5.7-6.5-8.5-10.3c2.8,0.2,5.6,0.2,8.5,0.2C59,78.2,61.8,78.1,64.6,78z M41.4,74.4
		c-4.7-0.5-9.1-1.3-13.2-2.2c1.2-4,2.8-8.2,4.7-12.5c1.3,2.5,2.6,5,4,7.5C38.4,69.7,39.9,72.1,41.4,74.4z M32.9,52.6
		c-1.9-4.3-3.5-8.5-4.7-12.5c4.1-1,8.5-1.7,13.2-2.2c-1.5,2.3-3,4.7-4.5,7.2C35.5,47.6,34.2,50.1,32.9,52.6z M47.6,34.2
		c2.8-3.8,5.7-7.2,8.5-10.3c2.9,3,5.7,6.5,8.5,10.3C61.8,34.1,59,34,56.1,34C53.2,34,50.4,34.1,47.6,34.2z M75.2,45
		c-1.5-2.5-2.9-4.9-4.5-7.2c4.7,0.5,9.1,1.3,13.2,2.2c-1.2,4-2.8,8.3-4.7,12.5C78,50.1,76.7,47.6,75.2,45z M25.9,30.2
		c-1.6-9.9-0.1-17,4-19.4c1.1-0.6,2.4-1,3.8-1c5.4,0,12.7,4.5,20.2,11.9c-3.5,3.7-7,8-10.3,12.8c-5.8,0.5-11.3,1.4-16.2,2.6
		C26.8,34.7,26.3,32.4,25.9,30.2z M3.8,56.1c0-6.2,8.6-11.8,21.5-15.3c1.5,4.9,3.5,10.1,5.9,15.3c-2.5,5.3-4.4,10.5-5.9,15.3
		C12.4,67.9,3.8,62.3,3.8,56.1z M33.8,102.4c-1.4,0-2.7-0.3-3.8-1c-5.4-3.1-5.9-13.3-2.5-26.3c4.9,1.2,10.4,2,16.2,2.6
		c3.4,4.8,6.8,9.1,10.3,12.8C46.4,97.9,39.2,102.4,33.8,102.4z M86.3,82c1.6,9.9,0.1,17-4,19.4c-5.4,3.1-14.5-1.5-24-11
		c3.5-3.7,7-8,10.3-12.8c5.8-0.5,11.3-1.4,16.2-2.6C85.4,77.5,85.9,79.8,86.3,82z M86.9,71.4c-1.5-4.9-3.5-10.1-5.9-15.3
		c2.4-5.2,4.4-10.4,5.9-15.3c13,3.5,21.5,9.1,21.5,15.3C108.4,62.3,99.8,67.9,86.9,71.4z"/>
</g>
</svg>
