<?xml version="1.0" encoding="utf-8"?>
<!-- Generator: Adobe Illustrator 26.3.1, SVG Export Plug-In . SVG Version: 6.00 Build 0)  -->
<svg version="1.1" id="Layer_1" xmlns="http://www.w3.org/2000/svg" xmlns:xlink="http://www.w3.org/1999/xlink" x="0px" y="0px"
	 viewBox="0 0 112.2 112.2" style="enable-background:new 0 0 112.2 112.2;" xml:space="preserve">
<style type="text/css">
	.st0{fill:#FFFFFF;}
	.st1{fill:#CD6799;}
</style>
<rect class="st0" width="112.2" height="112.2"/>
<path class="st1" d="M96.6,62.4c-3.9,0-7.3,1-10.2,2.4c-1-2.1-2.1-3.9-2.3-5.3c-0.2-1.6-0.5-2.5-0.2-4.4c0.2-1.9,1.4-4.6,1.3-4.8
	c0-0.2-0.2-1.2-2.5-1.2c-2.3,0-4.2,0.4-4.4,1s-0.7,1.9-0.9,3.3c-0.4,2-4.5,9.4-6.9,13.2c-0.8-1.5-1.4-2.8-1.6-3.9
	c-0.2-1.6-0.5-2.5-0.2-4.4c0.2-1.9,1.4-4.6,1.3-4.8c0-0.2-0.2-1.2-2.5-1.2c-2.3,0-4.2,0.4-4.4,1c-0.2,0.6-0.5,2-0.9,3.3
	c-0.5,1.4-5.9,13.6-7.4,16.7c-0.7,1.6-1.4,2.9-1.8,3.8l0,0c0,0,0,0.1-0.1,0.2c-0.4,0.8-0.6,1.2-0.6,1.2s0,0,0,0
	c-0.3,0.6-0.6,1.1-0.8,1.1c-0.1,0-0.3-1.5,0-3.5c0.8-4.2,2.8-10.8,2.7-11.1c0-0.1,0.4-1.3-1.3-1.9c-1.6-0.6-2.2,0.4-2.3,0.4
	S50.5,64,50.5,64s1.8-7.4-3.4-7.4c-3.2,0-7.7,3.5-9.9,6.7c-1.4,0.8-4.4,2.4-7.5,4.1c-1.2,0.7-2.5,1.4-3.6,2
	c-0.1-0.1-0.2-0.2-0.2-0.3C19.5,62.5,7.9,57.8,8.4,48.8c0.2-3.3,1.3-11.9,22.3-22.3c17.3-8.5,31-6.1,33.4-0.9
	c3.4,7.5-7.4,21.3-25.2,23.3C32.1,49.6,28.5,47,27.6,46c-0.9-1-1.1-1.1-1.4-0.9c-0.6,0.3-0.2,1.2,0,1.8c0.5,1.4,2.7,3.9,6.4,5.1
	c3.3,1.1,11.3,1.7,20.9-2.1c10.8-4.2,19.2-15.8,16.8-25.5c-2.5-9.9-18.9-13.1-34.4-7.6C26.6,20,16.6,25.1,9.5,31.9
	c-8.5,8-9.9,14.9-9.3,17.9c2,10.3,16.2,17.1,21.9,22c-0.3,0.2-0.6,0.3-0.8,0.4c-2.8,1.4-13.7,7.1-16.4,13.1
	C1.8,92.1,5.3,97,7.7,97.6c7.3,2,14.8-1.6,18.9-7.6c4-6,3.5-13.9,1.7-17.4c0,0,0-0.1-0.1-0.1c0.7-0.4,1.5-0.9,2.2-1.3
	c1.5-0.9,2.9-1.7,4.1-2.3c-0.7,1.9-1.2,4.2-1.5,7.5c-0.3,3.9,1.3,8.9,3.3,10.8c0.9,0.9,2,0.9,2.7,0.9c2.4,0,3.5-2,4.7-4.4
	c1.5-2.9,2.8-6.3,2.8-6.3s-1.7,9.1,2.8,9.1c1.6,0,3.3-2.1,4-3.2c0,0,0,0,0,0s0-0.1,0.1-0.2c0.2-0.3,0.3-0.4,0.3-0.4s0,0,0,0
	c0.7-1.1,2.1-3.8,4.3-8.1c2.8-5.6,5.6-12.5,5.6-12.5s0.2,1.7,1.1,4.5c0.5,1.7,1.5,3.5,2.3,5.2c-0.7,0.9-1.1,1.4-1.1,1.4s0,0,0,0
	c-0.5,0.7-1.1,1.5-1.7,2.2c-2.2,2.7-4.9,5.7-5.3,6.6c-0.4,1-0.3,1.8,0.5,2.4c0.6,0.5,1.7,0.5,2.7,0.5c2-0.1,3.4-0.6,4.1-0.9
	c1.1-0.4,2.4-1,3.5-1.9c2.2-1.6,3.5-3.9,3.4-7c-0.1-1.7-0.6-3.4-1.3-4.9c0.2-0.3,0.4-0.6,0.6-0.9c3.5-5.1,6.1-10.6,6.1-10.6
	s0.2,1.7,1.1,4.5c0.4,1.4,1.3,3,2,4.5c-3.3,2.6-5.3,5.7-6,7.7c-1.3,3.7-0.3,5.4,1.6,5.8c0.9,0.2,2.1-0.2,3-0.6
	c1.1-0.4,2.5-1,3.8-1.9c2.2-1.6,4.3-3.9,4.2-6.9c-0.1-1.4-0.4-2.8-0.9-4.1c2.8-1.1,6.3-1.8,10.9-1.3c9.8,1.1,11.7,7.2,11.3,9.8
	c-0.4,2.6-2.4,4-3.1,4.4c-0.7,0.4-0.9,0.6-0.8,0.9c0.1,0.5,0.4,0.4,1,0.3c0.8-0.1,5.1-2.1,5.3-6.8C112.5,68.9,106.8,62.3,96.6,62.4z
	 M21.4,87.8c-3.2,3.5-7.7,4.9-9.7,3.7c-2.1-1.2-1.3-6.4,2.7-10.1c2.4-2.3,5.5-4.4,7.6-5.7c0.5-0.3,1.2-0.7,2-1.2
	c0.1-0.1,0.2-0.1,0.2-0.1l0,0c0.2-0.1,0.3-0.2,0.5-0.3C26.2,79.4,24.8,84.1,21.4,87.8z M44.9,71.7c-1.1,2.7-3.5,9.8-4.9,9.4
	c-1.2-0.3-2-5.7-0.2-10.9c0.9-2.6,2.7-5.8,3.8-7c1.8-2,3.7-2.6,4.2-1.8C48.4,62.4,45.6,70,44.9,71.7z M64.4,81
	c-0.5,0.2-0.9,0.4-1.1,0.3c-0.1-0.1,0.2-0.4,0.2-0.4s2.4-2.6,3.4-3.8c0.6-0.7,1.2-1.5,1.9-2.4c0,0.1,0,0.2,0,0.3
	C68.8,78.1,65.7,80.2,64.4,81z M79.4,77.6c-0.3-0.2-0.3-1.1,0.9-3.6c0.5-1,1.5-2.7,3.3-4.3c0.2,0.7,0.3,1.3,0.3,1.9
	C83.9,75.5,81.1,77,79.4,77.6z"/>
</svg>
