<?xml version="1.0" encoding="utf-8"?>
<!-- Generator: Adobe Illustrator 26.3.1, SVG Export Plug-In . SVG Version: 6.00 Build 0)  -->
<svg version="1.1" id="Capa_1" xmlns="http://www.w3.org/2000/svg" xmlns:xlink="http://www.w3.org/1999/xlink" x="0px" y="0px"
	 viewBox="0 0 112.2 112.2" style="enable-background:new 0 0 112.2 112.2;" xml:space="preserve">
<style type="text/css">
	.st0{fill:#FE6838;}
	.st1{fill:#AE4E33;}
	.st2{fill:#DFDFDF;}
	.st3{fill:#FEFEFE;}
	.st4{fill:#DFDEDE;}
	.st5{fill:#B55437;}
	.st6{fill:#B15438;}
	.st7{fill:#AF5337;}
	.st8{fill:#BFBFBE;}
	.st9{fill:#BFBFBF;}
</style>
<g>
	<path class="st0" d="M51.5,0.1c3,0,6,0,9,0c0.2,0.1,0.4,0.2,0.7,0.2c4.2,0.4,8.3,1.2,12.3,2.5c17.8,6.2,29.8,18.2,36,36
		c1.4,4.1,2.3,8.3,2.5,12.6c-0.3-0.3-0.7-0.6-1-0.9c-6.8-6.8-13.6-13.5-20.4-20.3c-0.6-0.6-1.4-1.2-2.1-1.7l0,0
		c-0.1-0.1-0.2-0.2-0.3-0.2c-0.5-0.6-1-1.3-1.6-1.8c-3.1-2.6-6.9-3.7-10.7-4.5c-3.6-0.8-7.3-1.3-11-1.7C62,20,59,20,56.1,19.9
		c-2.5,0.1-5.1,0.1-7.6,0.3c-5,0.3-9.9,1-14.7,2.4c-3,0.9-6,1.9-8.4,4c-1.1,1-1.9,2.1-1.7,3.7c0,2.7,0.1,5.3-0.1,7.9
		c-0.1,2.5,0.5,4.6,2.6,6.1c0.1,0.1,0.3,0.2,0.4,0.3l0,0c0.1,0.1,0.2,0.1,0.2,0.2c0,0,0,0,0,0c0.6,0.7,1.2,1.4,1.8,2
		c1.2,1.3,2.5,2.6,3.7,3.9c-1.1-0.4-2.2-0.8-3.3-1.2c-0.2-0.1-0.3-0.2-0.5-0.3l0,0c-1.2-1.3-2.4-2.6-3.6-3.9
		c-0.4-0.4-0.8-0.7-1.3-1.2c0,0.8-0.1,1.2-0.1,1.7c0,2.3,0.2,4.7,0,7c-0.2,2.7,0.8,4.6,3,6c0.1,0.1,0.2,0.2,0.2,0.3c0,0,0,0,0,0
		c0.2,0.1,0.3,0.2,0.5,0.2l0,0c0.2,0.4,0.4,0.8,0.8,1.1c1.5,1.6,3,3.1,4.5,4.7c-1.2-0.5-2.4-0.9-3.5-1.4c-0.1-0.1-0.2-0.2-0.3-0.2
		c0,0,0,0,0,0c-1.7-1.6-3.4-3.2-5.1-4.7c0,0.1-0.1,0.3-0.1,0.6c0,2.4,0.2,4.9,0,7.3c-0.2,2.6,0.6,4.6,2.8,6.1
		c0.1,0.1,0.2,0.2,0.3,0.3l0,0c0.2,0.1,0.3,0.2,0.5,0.2l0,0c0.6,0.7,1.1,1.4,1.7,2c1.2,1.3,2.3,2.5,3.5,3.8
		c-1.2-0.4-2.3-0.9-3.5-1.3c-0.1-0.1-0.2-0.2-0.3-0.3c0,0,0,0,0,0c-1.5-1.6-3.1-3.2-4.8-5c-0.1,0.5-0.2,0.7-0.2,0.9
		c0,0.2,0,0.5,0,0.7l0,0c0,2.6,0.1,5.2,0,7.7c-0.1,1.9,0.6,3.5,2.2,4.6c0.3,0.2,0.5,0.4,0.7,0.7c0.1,0.1,0.2,0.2,0.4,0.2
		c0,0,0,0,0,0c0.3,0.4,0.5,0.8,0.9,1.2c4.8,4.8,9.7,9.6,14.5,14.4c3,3,5.9,5.9,8.9,8.9c-0.2,0-0.4,0-0.5,0
		c-7.2-0.8-14.2-2.7-20.5-6.2C11.6,95.3,1.5,79.5,0.2,58.5c-0.6-10.1,1.6-19.7,6.5-28.6c9-16.4,22.8-26.1,41.3-29.2
		C49.1,0.5,50.3,0.3,51.5,0.1z"/>
	<path class="st1" d="M51.1,111.8c-3-3-5.9-6-8.9-8.9c-4.8-4.8-9.7-9.6-14.5-14.4c-0.3-0.3-0.6-0.8-0.9-1.2c2.3,1,4.6,2.1,6.9,2.8
		c7.3,2.2,14.8,2.7,22.3,2.8c2.8-0.1,5.7-0.1,8.5-0.4c4.2-0.5,8.5-1.1,12.7-2c3.4-0.7,6.6-1.9,9.4-4.2c1.1-0.9,2-2,2-3.5
		c0.1-3.3,0-6.5,0-9.8c-0.8,1.9-2.4,3.1-4.1,4.1c-0.8,0.4-1.6,0.8-2.5,1.2c-7,2.8-14.3,3.5-21.7,3.9c-1.4,0.1-2.9,0.1-4.3,0.2
		c-5.1-0.4-10.3-0.7-15.4-1.4c-2.8-0.3-5.4-1.3-8.1-1.9c-0.1-0.1-0.2-0.1-0.3-0.2l0,0l0,0c-1.2-1.3-2.4-2.5-3.5-3.8
		c-0.6-0.7-1.1-1.4-1.7-2c9.2,4.6,19.1,5.2,29.1,5.5c6.7,0.1,13.4-0.6,19.9-2c3.4-0.8,6.8-1.9,9.8-3.8c1.5-1,2.8-2.2,2.8-4
		c0.1-3.3,0-6.5,0-9.8c-1.1,2.3-3,3.5-5,4.5c-6,2.8-12.4,3.7-18.9,4.3c-2.9,0.3-5.7,0.3-8.6,0.5c-4.8-0.4-9.7-0.6-14.4-1.2
		c-3.1-0.4-6.1-1.4-9.1-2.1c-1.5-1.6-3-3.1-4.5-4.7c-0.3-0.3-0.5-0.7-0.8-1.1c1.4,0.6,2.8,1.3,4.3,1.8c8,2.7,16.2,3.4,24.6,3.4
		c6.5,0.2,12.9-0.5,19.3-1.9c3.6-0.8,7.2-1.9,10.3-3.9c2-1.3,3.2-3,3-5.5c-0.1-1.8,0-3.6,0-5.5c0-1,0-2,0-3
		c-0.9,2.1-2.6,3.3-4.5,4.2c-5.9,3-12.3,3.9-18.8,4.6c-3.1,0.3-6.2,0.4-9.3,0.5c-4.5-0.3-9.1-0.4-13.6-1c-3.3-0.4-6.6-1.4-9.9-2.1
		c-0.1-0.1-0.3-0.1-0.4-0.2l0,0c-1.2-1.3-2.5-2.6-3.7-3.9c-0.6-0.7-1.2-1.3-1.8-2c3.7,2,7.6,3.2,11.7,4c5.8,1.1,11.7,1.5,17.6,1.6
		c1.3,0,2.5-0.1,3.8-0.1c5.1,0,10.2-0.7,15.2-1.8c3.7-0.8,7.3-1.8,10.5-3.9c1.6-1,3-2.3,3-4.4c0.1-3.1,0-6.1,0-9.2
		c0-0.1,0-0.3,0-0.4c0-0.1,0-0.2,0-0.2c-0.1-0.6-0.1-1.3-0.2-1.9c0.7,0.6,1.4,1.1,2.1,1.7c6.8,6.7,13.6,13.5,20.4,20.3
		c0.3,0.3,0.6,0.6,1,0.9c0.1,0.1,0.2,0.2,0.3,0.3c0,3,0,6,0,9c-0.1,0.1-0.2,0.3-0.2,0.4c-0.5,2.9-0.8,5.9-1.5,8.7
		c-4.3,16.4-14,28.5-29,36.3C71.9,111,61.7,112.9,51.1,111.8z"/>
	<path class="st2" d="M88.4,28.6c0.1,0.6,0.1,1.3,0.2,1.9c0,0-0.1,0-0.1,0.1c0,0.1,0,0.1,0,0.2c0,0.1,0,0.3,0,0.4
		c-0.7,0.8-1.2,1.6-2,2.3c-2.8,2.4-6.3,3.4-9.8,4.3c-6.8,1.8-13.8,2.1-20.7,2.4c0,0-0.1-0.1-0.1-0.1c0-6.7,0-13.4,0-20.1
		C59,20,62,20,64.9,20.3c3.7,0.4,7.4,1,11,1.7c3.8,0.8,7.6,2,10.7,4.5c0.6,0.5,1,1.2,1.6,1.8C88.3,28.4,88.4,28.5,88.4,28.6
		L88.4,28.6z"/>
	<path class="st3" d="M56.1,19.9c0,6.7,0,13.4,0,20.1c-0.5,0-1-0.1-1.5-0.1c-5.1,0.1-10.1-0.5-15.1-1.3c-4-0.7-7.9-1.7-11.5-3.6
		c-1.9-1-3.8-2.2-4.3-4.6c-0.2-1.6,0.6-2.7,1.7-3.7c2.4-2.1,5.4-3.2,8.4-4c4.8-1.4,9.7-2.1,14.7-2.4C51,20.1,53.5,20,56.1,19.9z"/>
	<path class="st4" d="M56.1,93c-7.6-0.1-15.1-0.6-22.3-2.8c-2.4-0.7-4.6-1.9-6.9-2.8c0,0,0,0,0,0c-0.1-0.1-0.2-0.2-0.4-0.2
		c-0.2-0.2-0.5-0.5-0.7-0.7c-1.5-1.2-2.2-2.7-2.2-4.6c0.1-2.6,0-5.2,0-7.7c0,0,0,0,0,0c0-0.2,0-0.5,0-0.7c0.2,0.3,0.4,0.5,0.6,0.8
		c1.1,1.6,2.5,2.8,4.4,3.3c0,0,0,0,0,0c0.1,0.1,0.2,0.2,0.3,0.3c1.2,0.4,2.3,0.9,3.5,1.3c0,0,0,0,0,0s0,0,0,0
		c0.1,0.1,0.2,0.1,0.3,0.2c2.7,0.7,5.4,1.6,8.1,1.9c5.1,0.6,10.3,0.9,15.4,1.4C56.1,86,56.1,89.5,56.1,93z"/>
	<path class="st4" d="M56.1,64.6c-8.3,0-16.6-0.7-24.6-3.4c-1.5-0.5-2.9-1.2-4.3-1.8c0,0,0,0,0,0c-0.2-0.1-0.3-0.2-0.5-0.2
		c0,0,0,0,0,0c-0.1-0.1-0.2-0.2-0.2-0.3c-2.2-1.4-3.2-3.3-3-6c0.2-2.3,0-4.7,0-7c0.1-0.2,0.1-0.3,0.2-0.6c1.2,2,2.7,3.3,4.8,4
		c0,0,0,0,0,0c0.2,0.1,0.3,0.2,0.5,0.3c1.1,0.4,2.2,0.8,3.3,1.2c0,0,0,0,0,0c0.1,0.1,0.3,0.1,0.4,0.2c3.3,0.7,6.5,1.7,9.9,2.1
		c4.5,0.6,9,0.7,13.6,1C56.1,57.7,56.1,61.1,56.1,64.6z"/>
	<path class="st4" d="M56.1,78.8c-10-0.2-19.9-0.8-29.1-5.5c0,0,0,0,0,0c-0.2-0.1-0.3-0.2-0.5-0.2c0,0,0,0,0,0
		c-0.1-0.1-0.2-0.2-0.3-0.3c-2.2-1.5-2.9-3.5-2.8-6.1c0.1-2.4,0-4.9,0-7.3c0.2,0.2,0.4,0.4,0.6,0.7c1.2,1.6,2.7,2.8,4.6,3.4
		c0,0,0,0,0,0c0.1,0.1,0.2,0.2,0.3,0.2c1.2,0.5,2.4,0.9,3.5,1.4c3,0.7,6,1.7,9.1,2.1c4.8,0.6,9.6,0.8,14.4,1.2
		C56.1,71.9,56.1,75.3,56.1,78.8z"/>
	<path class="st4" d="M23.7,30.4c0.5,2.4,2.4,3.6,4.3,4.6c3.6,1.9,7.5,2.9,11.5,3.6c5,0.9,10,1.4,15.1,1.3c0.5,0,1,0.1,1.5,0.1
		c0,0,0.1,0.1,0.1,0.1c0,3.5,0,6.9,0,10.4c-5.9-0.1-11.8-0.5-17.6-1.6c-4.1-0.8-8-2-11.7-4c0,0,0,0,0,0c-0.1-0.1-0.2-0.1-0.2-0.2
		c0,0,0,0,0,0c-0.1-0.1-0.3-0.2-0.4-0.3c-2.1-1.5-2.7-3.6-2.6-6.1C23.7,35.7,23.7,33,23.7,30.4z"/>
	<path class="st5" d="M28.5,49.3c-2-0.7-3.6-2-4.8-4c-0.1,0.2-0.2,0.4-0.2,0.6c0-0.5,0-0.9,0.1-1.7c0.6,0.5,1,0.9,1.3,1.2
		C26.2,46.7,27.4,48,28.5,49.3z"/>
	<path class="st6" d="M28.8,63.6c-1.9-0.6-3.4-1.8-4.6-3.4c-0.2-0.2-0.4-0.5-0.6-0.7c0-0.3,0.1-0.5,0.1-0.6
		C25.3,60.4,27.1,62,28.8,63.6z"/>
	<path class="st7" d="M28.5,77.6c-1.9-0.6-3.3-1.7-4.4-3.3c-0.2-0.3-0.4-0.5-0.6-0.8c0-0.2,0.1-0.4,0.2-0.9
		C25.5,74.3,27,75.9,28.5,77.6z"/>
	<path class="st1" d="M26.1,44.4c0.1,0.1,0.3,0.2,0.4,0.3C26.4,44.6,26.3,44.5,26.1,44.4z"/>
	<path class="st5" d="M29,49.6c-0.2-0.1-0.3-0.2-0.5-0.3C28.7,49.4,28.8,49.5,29,49.6z"/>
	<path class="st1" d="M26.6,73.1c0.2,0.1,0.3,0.2,0.5,0.2C26.9,73.3,26.7,73.2,26.6,73.1z"/>
	<path class="st1" d="M26.8,59.1c0.2,0.1,0.3,0.2,0.5,0.2C27.1,59.3,27,59.2,26.8,59.1z"/>
	<path class="st6" d="M29,63.8c-0.1-0.1-0.2-0.2-0.3-0.2C28.8,63.6,28.9,63.7,29,63.8z"/>
	<path class="st1" d="M26.6,58.8c0.1,0.1,0.2,0.2,0.2,0.3C26.7,59,26.7,58.9,26.6,58.8z"/>
	<path class="st1" d="M26.6,44.7c0.1,0.1,0.2,0.1,0.2,0.2C26.7,44.9,26.7,44.8,26.6,44.7z"/>
	<path class="st1" d="M26.3,72.9c0.1,0.1,0.2,0.2,0.3,0.3C26.5,73.1,26.4,73,26.3,72.9z"/>
	<path class="st1" d="M88.5,28.6c-0.1-0.1-0.2-0.2-0.3-0.2C88.3,28.4,88.4,28.5,88.5,28.6z"/>
	<path class="st7" d="M23.6,74.1C23.6,74.1,23.6,74.1,23.6,74.1C23.6,74.1,23.6,74.1,23.6,74.1z"/>
	<path class="st7" d="M28.8,77.8c-0.1-0.1-0.2-0.2-0.3-0.3C28.6,77.6,28.7,77.7,28.8,77.8z"/>
	<path class="st1" d="M26.5,87.1c0.1,0.1,0.2,0.2,0.4,0.2C26.7,87.3,26.6,87.2,26.5,87.1z"/>
	<path class="st8" d="M56.1,78.8c0-3.5,0-6.9,0-10.4c2.9-0.2,5.7-0.2,8.6-0.5c6.5-0.6,12.9-1.5,18.9-4.3c2.1-1,4-2.2,5-4.5
		c0,3.3,0.1,6.5,0,9.8c-0.1,1.9-1.4,3.1-2.8,4c-3,2-6.3,3.1-9.8,3.8C69.5,78.2,62.8,78.9,56.1,78.8z"/>
	<path class="st8" d="M56.1,93c0-3.5,0-7,0-10.4c1.4-0.1,2.9-0.1,4.3-0.2c7.4-0.4,14.7-1.2,21.7-3.9c0.8-0.3,1.7-0.7,2.5-1.2
		c1.7-1,3.3-2.2,4.1-4.1c0,3.3,0,6.5,0,9.8c0,1.5-0.9,2.6-2,3.5c-2.8,2.2-6,3.4-9.4,4.2c-4.2,0.9-8.4,1.5-12.7,2
		C61.8,92.9,58.9,92.9,56.1,93z"/>
	<path class="st8" d="M56.1,64.6c0-3.5,0-7,0-10.4c3.1-0.2,6.2-0.2,9.3-0.5c6.5-0.6,12.9-1.5,18.8-4.6c1.9-1,3.6-2.1,4.5-4.2
		c0,1,0,2,0,3c0,1.8-0.1,3.6,0,5.5c0.2,2.5-1,4.2-3,5.5c-3.2,2.1-6.7,3.1-10.3,3.9C69,64.1,62.6,64.8,56.1,64.6z"/>
	<path class="st9" d="M56.1,50.5c0-3.5,0-6.9,0-10.4c7-0.3,13.9-0.6,20.7-2.4c3.5-0.9,7-1.9,9.8-4.3c0.8-0.6,1.3-1.5,2-2.3
		c0,3.1,0.1,6.1,0,9.2c0,2.1-1.4,3.3-3,4.4c-3.2,2.1-6.8,3.1-10.5,3.9c-5,1.1-10.1,1.7-15.2,1.8C58.7,50.4,57.4,50.5,56.1,50.5z"/>
	<path class="st0" d="M32.7,51c-0.1-0.1-0.3-0.1-0.4-0.2C32.4,50.9,32.5,51,32.7,51z"/>
	<path class="st9" d="M88.6,30.7c0-0.1,0-0.1,0-0.2c0,0,0,0,0.1-0.1C88.6,30.6,88.6,30.7,88.6,30.7z"/>
	<path class="st0" d="M32.5,79.3c-0.1-0.1-0.2-0.1-0.3-0.2C32.3,79.1,32.4,79.2,32.5,79.3z"/>
</g>
</svg>
