<?xml version="1.0" encoding="utf-8"?>
<!-- Generator: Adobe Illustrator 23.0.2, SVG Export Plug-In . SVG Version: 6.00 Build 0)  -->
<svg version="1.1" id="Layer_1" xmlns="http://www.w3.org/2000/svg" xmlns:xlink="http://www.w3.org/1999/xlink" x="0px" y="0px"
	 viewBox="0 0 80 80" style="enable-background:new 0 0 80 80;" xml:space="preserve">
<style type="text/css">
	.st0{fill:#FFFFFF;}
	.st1{clip-path:url(#SVGID_2_);fill:#464342;}
</style>
<g>
	<g>
		<rect y="0" class="st0" width="80" height="80"/>
		<g>
			<defs>
				<rect id="SVGID_1_" x="0" y="0" width="80" height="80"/>
			</defs>
			<clipPath id="SVGID_2_">
				<use xlink:href="#SVGID_1_"  style="overflow:visible;"/>
			</clipPath>
			<path class="st1" d="M40.2,10.2c-16.5,0-30,13.5-30,30c0,16.5,13.5,30,30,30c16.5,0,30-13.5,30-30C70.2,23.7,56.7,10.2,40.2,10.2
				 M13.2,40.2c0-3.9,0.8-7.6,2.3-11l12.9,35.3C19.4,60.1,13.2,50.9,13.2,40.2 M40.2,67.2c-2.6,0-5.2-0.4-7.6-1.1l8.1-23.5L49,65.3
				c0.1,0.1,0.1,0.3,0.2,0.4C46.3,66.6,43.3,67.2,40.2,67.2 M43.9,27.5c1.6-0.1,3.1-0.3,3.1-0.3c1.5-0.2,1.3-2.3-0.2-2.2
				c0,0-4.4,0.3-7.2,0.3c-2.7,0-7.1-0.3-7.1-0.3c-1.5-0.1-1.6,2.1-0.2,2.2c0,0,1.4,0.2,2.8,0.3l4.2,11.5l-5.9,17.7l-9.8-29.2
				c1.6-0.1,3.1-0.3,3.1-0.3c1.5-0.2,1.3-2.3-0.2-2.2c0,0-4.4,0.3-7.2,0.3c-0.5,0-1.1,0-1.7,0c4.8-7.3,13.1-12.2,22.5-12.2
				c7,0,13.4,2.7,18.2,7.1c-0.1,0-0.2,0-0.3,0c-2.6,0-4.5,2.3-4.5,4.8c0,2.2,1.3,4.1,2.6,6.3c1,1.8,2.2,4.1,2.2,7.4
				c0,2.3-0.9,5-2.1,8.7l-2.7,9L43.9,27.5z M63.9,27.3c2.1,3.8,3.3,8.3,3.3,12.9c0,10-5.4,18.6-13.4,23.3L62,39.7
				c1.5-3.8,2.1-6.9,2.1-9.7C64,29,64,28.1,63.9,27.3"/>
		</g>
	</g>
</g>
</svg>
