<?xml version="1.0" encoding="utf-8"?>
<!-- Generator: Adobe Illustrator 26.3.1, SVG Export Plug-In . SVG Version: 6.00 Build 0)  -->
<svg version="1.1" id="Layer_1" xmlns="http://www.w3.org/2000/svg" xmlns:xlink="http://www.w3.org/1999/xlink" x="0px" y="0px"
	 viewBox="0 0 80 80" style="enable-background:new 0 0 80 80;" xml:space="preserve">
<style type="text/css">
	.st0{fill:#470137;}
	.st1{fill:#FF61F6;}
</style>
<g id="Layer_2_1_">
	<g id="Surfaces">
		<g id="UI_UX_Surface">
			<g id="Outline_no_shadow">
				<path class="st0" d="M14.2,1h51.7C73.7,1,80,7.3,80,15.2v49.7C80,72.7,73.7,79,65.8,79H14.2C6.3,79,0,72.7,0,64.8V15.2
					C0,7.3,6.3,1,14.2,1z"/>
			</g>
		</g>
	</g>
	<g id="Outlined_Mnemonics_Logos">
		<g id="Xd">
			<path class="st1" d="M42.1,21.5L32.1,38l10.7,17.5c0.1,0.1,0.1,0.3,0.1,0.4c0,0.1-0.2,0-0.4,0.1h-7.6c-0.5,0-0.9,0-1.1-0.4
				c-0.7-1.4-1.4-2.8-2.1-4.2c-0.7-1.4-1.5-2.8-2.3-4.2s-1.6-2.9-2.4-4.3h-0.1c-0.7,1.4-1.5,2.9-2.2,4.3c-0.8,1.4-1.5,2.9-2.3,4.3
				c-0.8,1.4-1.5,2.8-2.3,4.2C19.9,56,19.6,56,19.2,56h-7.3c-0.1,0-0.2,0.1-0.2-0.1c0-0.1,0-0.3,0.1-0.4l10.4-17L12,21.5
				c-0.1-0.1-0.1-0.3-0.1-0.3C12,21,12.1,21,12.3,21h7.6c0.2,0,0.3,0,0.5,0.1c0.1,0.1,0.2,0.2,0.3,0.3c0.6,1.4,1.4,2.9,2.1,4.3
				c0.8,1.4,1.6,2.8,2.4,4.2c0.8,1.4,1.5,2.8,2.2,4.2h0.1c0.7-1.5,1.4-2.9,2.2-4.3c0.7-1.4,1.5-2.8,2.3-4.2s1.5-2.8,2.2-4.2
				c0-0.1,0.1-0.3,0.2-0.3c0.1-0.1,0.3-0.1,0.4-0.1h7c0.2,0,0.3,0.1,0.4,0.2C42.2,21.3,42.1,21.4,42.1,21.5L42.1,21.5z"/>
			<path class="st1" d="M57.5,56.7c-2.5,0-4.9-0.5-7.2-1.5c-2.1-1-3.8-2.6-5-4.5c-1.2-2-1.8-4.6-1.8-7.6c0-2.5,0.6-4.9,1.8-7
				c1.3-2.2,3.1-4,5.3-5.2c2.3-1.3,5.1-1.9,8.4-1.9c0.2,0,0.4,0,0.7,0c0.3,0,0.6,0,1,0.1V18.5c0-0.2,0.1-0.4,0.3-0.4h6.8
				c0.2,0,0.3,0.1,0.3,0.2c0,0,0,0.1,0,0.1v31.7c0,0.6,0,1.3,0.1,2c0.1,0.7,0.1,1.4,0.1,1.9c0,0.2-0.1,0.4-0.3,0.5
				c-1.7,0.7-3.6,1.3-5.4,1.6C60.9,56.5,59.2,56.7,57.5,56.7z M60.7,50V35.3c-0.3-0.1-0.6-0.1-0.9-0.2c-0.4,0-0.7-0.1-1.1-0.1
				c-1.3,0-2.6,0.3-3.8,0.9c-1.1,0.6-2.1,1.4-2.8,2.5c-0.7,1.1-1.1,2.5-1.1,4.2c0,1.2,0.2,2.3,0.6,3.4c0.3,0.9,0.8,1.7,1.5,2.4
				c0.6,0.6,1.4,1.1,2.3,1.3c0.9,0.3,1.8,0.4,2.8,0.4c0.5,0,1,0,1.4-0.1C60,50.2,60.3,50.1,60.7,50z"/>
		</g>
	</g>
</g>
</svg>
